<svg xmlns="http://www.w3.org/2000/svg" width="560" height="340" viewBox="0 0 560 340" font-family="ui-monospace, SFMono-Regular, monospace">
<defs><filter id="glow" x="-20%" y="-20%" width="140%" height="140%"><feGaussianBlur stdDeviation="1.6" result="b"/><feMerge><feMergeNode in="b"/><feMergeNode in="SourceGraphic"/></feMerge></filter></defs>
<rect width="560" height="340" rx="7" fill="#0d1117"/>
<rect x="0.5" y="0.5" width="559" height="339" rx="7" fill="none" stroke="#00ff41" stroke-opacity="0.30"/>
<text x="66" y="28" fill="#00ff41" font-size="14" font-weight="bold">EXPECTED SHORTFALL (CVaR)</text>
<text x="538" y="28" fill="#8b949e" font-size="9.5" text-anchor="end">ES vs VaR · synthetic</text>
<circle cx="54" cy="24" r="3" fill="#00ff41" filter="url(#glow)"><animate attributeName="opacity" values="1;0.2;1" dur="1.8s" repeatCount="indefinite"/></circle>
<line x1="66" y1="292.0" x2="538" y2="292.0" stroke="#1b2430" stroke-width="1"/>
<text x="58" y="295.0" fill="#8b949e" font-size="9" text-anchor="end">0.00</text>
<line x1="66" y1="231.4" x2="538" y2="231.4" stroke="#1b2430" stroke-width="1"/>
<text x="58" y="234.4" fill="#8b949e" font-size="9" text-anchor="end">0.10</text>
<line x1="66" y1="170.8" x2="538" y2="170.8" stroke="#1b2430" stroke-width="1"/>
<text x="58" y="173.8" fill="#8b949e" font-size="9" text-anchor="end">0.20</text>
<line x1="66" y1="110.2" x2="538" y2="110.2" stroke="#1b2430" stroke-width="1"/>
<text x="58" y="113.2" fill="#8b949e" font-size="9" text-anchor="end">0.30</text>
<line x1="84.6" y1="56" x2="84.6" y2="292" stroke="#1b2430" stroke-width="1"/>
<text x="84.6" y="307.0" fill="#8b949e" font-size="9" text-anchor="middle">-8</text>
<line x1="170.6" y1="56" x2="170.6" y2="292" stroke="#1b2430" stroke-width="1"/>
<text x="170.6" y="307.0" fill="#8b949e" font-size="9" text-anchor="middle">-6</text>
<line x1="256.6" y1="56" x2="256.6" y2="292" stroke="#1b2430" stroke-width="1"/>
<text x="256.6" y="307.0" fill="#8b949e" font-size="9" text-anchor="middle">-4</text>
<line x1="342.6" y1="56" x2="342.6" y2="292" stroke="#1b2430" stroke-width="1"/>
<text x="342.6" y="307.0" fill="#8b949e" font-size="9" text-anchor="middle">-2</text>
<line x1="428.6" y1="56" x2="428.6" y2="292" stroke="#1b2430" stroke-width="1"/>
<text x="428.6" y="307.0" fill="#8b949e" font-size="9" text-anchor="middle">+0</text>
<line x1="514.6" y1="56" x2="514.6" y2="292" stroke="#1b2430" stroke-width="1"/>
<text x="514.6" y="307.0" fill="#8b949e" font-size="9" text-anchor="middle">+2</text>
<text x="302.0" y="332" fill="#8b949e" font-size="10" text-anchor="middle">P&amp;L (%)</text>
<text transform="translate(15,174.0) rotate(-90)" fill="#8b949e" font-size="10" text-anchor="middle">density</text>
<path d="M 66.0 292.0 68.0 292.0 69.9 291.9 71.9 291.9 73.9 291.9 75.9 291.9 77.8 291.9 79.8 291.9 81.8 291.9 83.8 291.9 85.7 291.9 87.7 291.9 89.7 291.9 91.7 291.9 93.6 291.9 95.6 291.9 97.6 291.9 99.6 291.9 101.5 291.9 103.5 291.9 105.5 291.8 107.5 291.8 109.4 291.8 111.4 291.8 113.4 291.8 115.4 291.8 117.3 291.7 119.3 291.7 121.3 291.7 123.3 291.6 125.2 291.6 127.2 291.5 129.2 291.5 131.2 291.4 133.1 291.4 135.1 291.3 137.1 291.2 139.1 291.1 141.0 291.1 143.0 291.0 145.0 290.9 147.0 290.8 148.9 290.7 150.9 290.5 152.9 290.4 154.9 290.3 156.8 290.2 158.8 290.1 160.8 290.0 162.8 289.9 164.7 289.8 166.7 289.7 168.7 289.6 170.7 289.4 172.6 289.3 174.6 289.2 176.6 289.0 178.6 288.9 180.5 288.7 182.5 288.6 184.5 288.4 186.5 288.2 188.4 288.0 190.4 287.8 192.4 287.6 194.4 287.3 196.3 287.1 198.3 286.8 200.3 286.6 202.3 286.3 204.2 286.0 206.2 285.7 208.2 285.4 210.2 285.1 212.1 284.8 214.1 284.5 216.1 284.2 218.1 283.9 220.0 283.6 222.0 283.2 224.0 282.9 226.0 282.6 227.9 282.3 229.9 282.0 231.9 281.6 233.9 281.3 235.8 281.0 237.8 280.6 239.8 280.3 241.8 280.0 243.7 279.6 245.7 279.3 247.7 278.9 249.7 278.6 251.6 278.3 253.6 278.0 255.6 277.6 257.6 277.3 259.5 277.1 261.5 276.8 263.5 276.5 265.5 276.3 267.4 276.0 269.4 275.8 271.4 275.6 273.4 275.4 275.3 275.2 277.3 275.0 279.3 274.8 281.3 274.6 283.2 274.4 285.2 274.2 287.2 274.0 289.2 273.7 291.1 273.5 291.1 292.0 289.2 292.0 287.2 292.0 285.2 292.0 283.2 292.0 281.3 292.0 279.3 292.0 277.3 292.0 275.3 292.0 273.4 292.0 271.4 292.0 269.4 292.0 267.4 292.0 265.5 292.0 263.5 292.0 261.5 292.0 259.5 292.0 257.6 292.0 255.6 292.0 253.6 292.0 251.6 292.0 249.7 292.0 247.7 292.0 245.7 292.0 243.7 292.0 241.8 292.0 239.8 292.0 237.8 292.0 235.8 292.0 233.9 292.0 231.9 292.0 229.9 292.0 227.9 292.0 226.0 292.0 224.0 292.0 222.0 292.0 220.0 292.0 218.1 292.0 216.1 292.0 214.1 292.0 212.1 292.0 210.2 292.0 208.2 292.0 206.2 292.0 204.2 292.0 202.3 292.0 200.3 292.0 198.3 292.0 196.3 292.0 194.4 292.0 192.4 292.0 190.4 292.0 188.4 292.0 186.5 292.0 184.5 292.0 182.5 292.0 180.5 292.0 178.6 292.0 176.6 292.0 174.6 292.0 172.6 292.0 170.7 292.0 168.7 292.0 166.7 292.0 164.7 292.0 162.8 292.0 160.8 292.0 158.8 292.0 156.8 292.0 154.9 292.0 152.9 292.0 150.9 292.0 148.9 292.0 147.0 292.0 145.0 292.0 143.0 292.0 141.0 292.0 139.1 292.0 137.1 292.0 135.1 292.0 133.1 292.0 131.2 292.0 129.2 292.0 127.2 292.0 125.2 292.0 123.3 292.0 121.3 292.0 119.3 292.0 117.3 292.0 115.4 292.0 113.4 292.0 111.4 292.0 109.4 292.0 107.5 292.0 105.5 292.0 103.5 292.0 101.5 292.0 99.6 292.0 97.6 292.0 95.6 292.0 93.6 292.0 91.7 292.0 89.7 292.0 87.7 292.0 85.7 292.0 83.8 292.0 81.8 292.0 79.8 292.0 77.8 292.0 75.9 292.0 73.9 292.0 71.9 292.0 69.9 292.0 68.0 292.0 66.0 292.0 Z" fill="#ff4d4d" stroke="none" opacity="0"><animate attributeName="opacity" from="0" to="0.22" dur="0.9s" begin="0.9s" fill="freeze"/></path>
<path id="p1" d="M 66.0 292.0 L 68.0 292.0 L 69.9 291.9 L 71.9 291.9 L 73.9 291.9 L 75.9 291.9 L 77.8 291.9 L 79.8 291.9 L 81.8 291.9 L 83.8 291.9 L 85.7 291.9 L 87.7 291.9 L 89.7 291.9 L 91.7 291.9 L 93.6 291.9 L 95.6 291.9 L 97.6 291.9 L 99.6 291.9 L 101.5 291.9 L 103.5 291.9 L 105.5 291.8 L 107.5 291.8 L 109.4 291.8 L 111.4 291.8 L 113.4 291.8 L 115.4 291.8 L 117.3 291.7 L 119.3 291.7 L 121.3 291.7 L 123.3 291.6 L 125.2 291.6 L 127.2 291.5 L 129.2 291.5 L 131.2 291.4 L 133.1 291.4 L 135.1 291.3 L 137.1 291.2 L 139.1 291.1 L 141.0 291.1 L 143.0 291.0 L 145.0 290.9 L 147.0 290.8 L 148.9 290.7 L 150.9 290.5 L 152.9 290.4 L 154.9 290.3 L 156.8 290.2 L 158.8 290.1 L 160.8 290.0 L 162.8 289.9 L 164.7 289.8 L 166.7 289.7 L 168.7 289.6 L 170.7 289.4 L 172.6 289.3 L 174.6 289.2 L 176.6 289.0 L 178.6 288.9 L 180.5 288.7 L 182.5 288.6 L 184.5 288.4 L 186.5 288.2 L 188.4 288.0 L 190.4 287.8 L 192.4 287.6 L 194.4 287.3 L 196.3 287.1 L 198.3 286.8 L 200.3 286.6 L 202.3 286.3 L 204.2 286.0 L 206.2 285.7 L 208.2 285.4 L 210.2 285.1 L 212.1 284.8 L 214.1 284.5 L 216.1 284.2 L 218.1 283.9 L 220.0 283.6 L 222.0 283.2 L 224.0 282.9 L 226.0 282.6 L 227.9 282.3 L 229.9 282.0 L 231.9 281.6 L 233.9 281.3 L 235.8 281.0 L 237.8 280.6 L 239.8 280.3 L 241.8 280.0 L 243.7 279.6 L 245.7 279.3 L 247.7 278.9 L 249.7 278.6 L 251.6 278.3 L 253.6 278.0 L 255.6 277.6 L 257.6 277.3 L 259.5 277.1 L 261.5 276.8 L 263.5 276.5 L 265.5 276.3 L 267.4 276.0 L 269.4 275.8 L 271.4 275.6 L 273.4 275.4 L 275.3 275.2 L 277.3 275.0 L 279.3 274.8 L 281.3 274.6 L 283.2 274.4 L 285.2 274.2 L 287.2 274.0 L 289.2 273.7 L 291.1 273.5 L 293.1 273.3 L 295.1 273.0 L 297.1 272.7 L 299.0 272.4 L 301.0 272.1 L 303.0 271.8 L 305.0 271.4 L 306.9 271.0 L 308.9 270.6 L 310.9 270.1 L 312.9 269.5 L 314.8 268.9 L 316.8 268.2 L 318.8 267.4 L 320.8 266.6 L 322.7 265.6 L 324.7 264.5 L 326.7 263.3 L 328.7 262.0 L 330.6 260.5 L 332.6 258.9 L 334.6 257.1 L 336.6 255.2 L 338.5 253.1 L 340.5 250.9 L 342.5 248.5 L 344.5 246.0 L 346.4 243.3 L 348.4 240.4 L 350.4 237.4 L 352.4 234.2 L 354.3 230.8 L 356.3 227.3 L 358.3 223.6 L 360.3 219.7 L 362.2 215.7 L 364.2 211.5 L 366.2 207.1 L 368.2 202.6 L 370.1 197.9 L 372.1 193.0 L 374.1 188.1 L 376.1 183.0 L 378.0 177.8 L 380.0 172.6 L 382.0 167.3 L 384.0 162.0 L 385.9 156.7 L 387.9 151.5 L 389.9 146.4 L 391.9 141.4 L 393.8 136.5 L 395.8 131.8 L 397.8 127.3 L 399.8 122.9 L 401.7 118.8 L 403.7 114.9 L 405.7 111.2 L 407.7 107.7 L 409.6 104.4 L 411.6 101.4 L 413.6 98.7 L 415.6 96.2 L 417.5 93.9 L 419.5 92.0 L 421.5 90.3 L 423.5 88.9 L 425.4 87.9 L 427.4 87.2 L 429.4 86.8 L 431.4 86.8 L 433.3 87.1 L 435.3 87.8 L 437.3 88.9 L 439.3 90.4 L 441.2 92.2 L 443.2 94.3 L 445.2 96.9 L 447.2 99.7 L 449.1 102.9 L 451.1 106.4 L 453.1 110.2 L 455.1 114.2 L 457.0 118.5 L 459.0 123.0 L 461.0 127.7 L 463.0 132.6 L 464.9 137.5 L 466.9 142.6 L 468.9 147.8 L 470.9 153.1 L 472.8 158.4 L 474.8 163.7 L 476.8 169.0 L 478.8 174.4 L 480.7 179.6 L 482.7 184.9 L 484.7 190.1 L 486.7 195.2 L 488.6 200.2 L 490.6 205.1 L 492.6 210.0 L 494.6 214.7 L 496.5 219.3 L 498.5 223.7 L 500.5 228.1 L 502.5 232.2 L 504.4 236.3 L 506.4 240.2 L 508.4 243.9 L 510.4 247.4 L 512.3 250.8 L 514.3 254.0 L 516.3 257.0 L 518.3 259.9 L 520.2 262.6 L 522.2 265.1 L 524.2 267.4 L 526.2 269.6 L 528.1 271.6 L 530.1 273.5 L 532.1 275.3 L 534.1 276.9 L 536.0 278.3 L 538.0 279.7" fill="none" stroke="#00ff41" stroke-width="2.0" filter="url(#glow)" stroke-dasharray="1" pathLength="1" stroke-dashoffset="1"><animate attributeName="stroke-dashoffset" from="1" to="0" dur="1.7s" begin="0.1s" fill="freeze" calcMode="spline" keyTimes="0;1" keySplines="0.4 0 0.2 1"/></path><circle r="3" fill="#00ff41" filter="url(#glow)" opacity="0"><animate attributeName="opacity" to="0.95" dur="0.3s" begin="1.8s" fill="freeze"/><animateMotion dur="5.0s" begin="1.8s" repeatCount="indefinite" keyPoints="0;1" keyTimes="0;1" calcMode="linear"><mpath href="#p1"/></animateMotion></circle>
<g opacity="0"><animate attributeName="opacity" from="0" to="1" dur="0.5s" begin="1.4s" fill="freeze"/><line x1="291.7" y1="56" x2="291.7" y2="292" stroke="#ffb000" stroke-width="1.5" stroke-dasharray="4 3"><animate attributeName="stroke-opacity" values="0.55;1;0.55" dur="2.4s" begin="1.9s" repeatCount="indefinite"/></line></g>
<g opacity="0"><animate attributeName="opacity" from="0" to="1" dur="0.5s" begin="1.7s" fill="freeze"/><line x1="243.8" y1="56" x2="243.8" y2="292" stroke="#ff4d4d" stroke-width="1.5" stroke-dasharray="4 3"><animate attributeName="stroke-opacity" values="0.55;1;0.55" dur="2.4s" begin="2.2s" repeatCount="indefinite"/></line></g>
<g opacity="0"><animate attributeName="opacity" from="0" to="1" dur="0.5s" begin="2.0s" fill="freeze"/><line x1="215.7" y1="56" x2="215.7" y2="292" stroke="#ff8a3d" stroke-width="1.5" stroke-dasharray="2 3"></line></g>
<g opacity="0"><animate attributeName="opacity" from="0" to="1" dur="0.5s" begin="2.3s" fill="freeze"/><line x1="185.6" y1="56" x2="185.6" y2="292" stroke="#c0392b" stroke-width="1.5" stroke-dasharray="2 3"><animate attributeName="stroke-opacity" values="0.55;1;0.55" dur="2.4s" begin="2.8s" repeatCount="indefinite"/></line></g>
<g font-size="10" font-weight="bold" opacity="0"><animate attributeName="opacity" from="0" to="1" dur="0.6s" begin="2.4s" fill="freeze"/><text x="532" y="70.0" fill="#ffb000" text-anchor="end">VaR95  -3.2</text><text x="532" y="84.0" fill="#ff4d4d" text-anchor="end">ES95   -4.3</text><text x="532" y="98.0" fill="#ff8a3d" text-anchor="end">VaR99  -5.0</text><text x="532" y="112.0" fill="#c0392b" text-anchor="end">ES99   -5.7</text></g>
<g font-size="9"><rect x="74" y="63" width="10" height="10" rx="2" fill="#00ff41"/><text x="89" y="72" fill="#8b949e">P&amp;L density</text><rect x="74" y="79" width="10" height="10" rx="2" fill="#ffb000"/><text x="89" y="88" fill="#8b949e">VaR</text><rect x="74" y="95" width="10" height="10" rx="2" fill="#ff4d4d"/><text x="89" y="104" fill="#8b949e">ES / CVaR</text></g>
</svg>