<svg xmlns="http://www.w3.org/2000/svg" width="560" height="340" viewBox="0 0 560 340" font-family="ui-monospace, SFMono-Regular, monospace">
<defs><filter id="glow" x="-20%" y="-20%" width="140%" height="140%"><feGaussianBlur stdDeviation="1.6" result="b"/><feMerge><feMergeNode in="b"/><feMergeNode in="SourceGraphic"/></feMerge></filter></defs>
<rect width="560" height="340" rx="7" fill="#0d1117"/>
<rect x="0.5" y="0.5" width="559" height="339" rx="7" fill="none" stroke="#00ff41" stroke-opacity="0.30"/>
<text x="66" y="28" fill="#00ff41" font-size="14" font-weight="bold">ROLLING VaR (95%)</text>
<text x="538" y="28" fill="#8b949e" font-size="9.5" text-anchor="end">40D window · 1Y · synthetic</text>
<circle cx="54" cy="24" r="3" fill="#00ff41" filter="url(#glow)"><animate attributeName="opacity" values="1;0.2;1" dur="1.8s" repeatCount="indefinite"/></circle>
<line x1="66" y1="292.0" x2="538" y2="292.0" stroke="#1b2430" stroke-width="1"/>
<text x="58" y="295.0" fill="#8b949e" font-size="9" text-anchor="end">0.0</text>
<line x1="66" y1="224.6" x2="538" y2="224.6" stroke="#1b2430" stroke-width="1"/>
<text x="58" y="227.6" fill="#8b949e" font-size="9" text-anchor="end">1.0</text>
<line x1="66" y1="157.1" x2="538" y2="157.1" stroke="#1b2430" stroke-width="1"/>
<text x="58" y="160.1" fill="#8b949e" font-size="9" text-anchor="end">2.0</text>
<line x1="66" y1="89.7" x2="538" y2="89.7" stroke="#1b2430" stroke-width="1"/>
<text x="58" y="92.7" fill="#8b949e" font-size="9" text-anchor="end">3.0</text>
<line x1="66.0" y1="56" x2="66.0" y2="292" stroke="#1b2430" stroke-width="1"/>
<text x="66.0" y="307.0" fill="#8b949e" font-size="9" text-anchor="middle">0</text>
<line x1="160.0" y1="56" x2="160.0" y2="292" stroke="#1b2430" stroke-width="1"/>
<text x="160.0" y="307.0" fill="#8b949e" font-size="9" text-anchor="middle">50</text>
<line x1="254.0" y1="56" x2="254.0" y2="292" stroke="#1b2430" stroke-width="1"/>
<text x="254.0" y="307.0" fill="#8b949e" font-size="9" text-anchor="middle">100</text>
<line x1="348.1" y1="56" x2="348.1" y2="292" stroke="#1b2430" stroke-width="1"/>
<text x="348.1" y="307.0" fill="#8b949e" font-size="9" text-anchor="middle">150</text>
<line x1="442.1" y1="56" x2="442.1" y2="292" stroke="#1b2430" stroke-width="1"/>
<text x="442.1" y="307.0" fill="#8b949e" font-size="9" text-anchor="middle">200</text>
<line x1="536.1" y1="56" x2="536.1" y2="292" stroke="#1b2430" stroke-width="1"/>
<text x="536.1" y="307.0" fill="#8b949e" font-size="9" text-anchor="middle">250</text>
<text x="302.0" y="332" fill="#8b949e" font-size="10" text-anchor="middle">Trading day</text>
<text transform="translate(15,174.0) rotate(-90)" fill="#8b949e" font-size="10" text-anchor="middle">VaR (%)</text>
<rect x="272.9" y="56" width="122.2" height="236.0" fill="#ff4d4d" opacity="0"><animate attributeName="opacity" to="0.08" dur="0.8s" begin="0.4s" fill="freeze"/></rect>
<text x="334.0" y="68.0" fill="#ff4d4d" font-size="9" text-anchor="middle" opacity="0"><animate attributeName="opacity" to="0.8" dur="0.8s" begin="1.6s" fill="freeze"/>STRESS</text>
<path id="varline" d="M 66.0 243.3 L 67.9 246.4 L 69.8 196.7 L 71.6 199.2 L 73.5 201.8 L 75.4 204.4 L 77.3 207.0 L 79.2 209.6 L 81.0 212.2 L 82.9 213.2 L 84.8 180.1 L 86.7 181.2 L 88.6 182.3 L 90.4 183.5 L 92.3 184.6 L 94.2 185.8 L 96.1 186.9 L 98.0 188.1 L 99.8 189.2 L 101.7 190.3 L 103.6 191.5 L 105.5 193.9 L 107.4 192.3 L 109.3 192.7 L 111.1 193.1 L 113.0 193.5 L 114.9 193.9 L 116.8 194.3 L 118.7 194.7 L 120.5 195.1 L 122.4 195.5 L 124.3 195.9 L 126.2 187.1 L 128.1 187.6 L 129.9 188.2 L 131.8 188.7 L 133.7 189.3 L 135.6 189.8 L 137.5 190.4 L 139.3 190.9 L 141.2 191.5 L 143.1 191.5 L 145.0 191.5 L 146.9 199.6 L 148.7 199.6 L 150.6 199.6 L 152.5 199.6 L 154.4 199.6 L 156.3 199.6 L 158.1 199.6 L 160.0 199.6 L 161.9 203.2 L 163.8 203.2 L 165.7 203.2 L 167.5 203.2 L 169.4 203.2 L 171.3 203.2 L 173.2 203.2 L 175.1 203.2 L 176.9 203.2 L 178.8 203.2 L 180.7 203.2 L 182.6 203.1 L 184.5 203.2 L 186.4 203.2 L 188.2 203.2 L 190.1 203.2 L 192.0 203.2 L 193.9 203.2 L 195.8 203.2 L 197.6 203.2 L 199.5 203.2 L 201.4 203.1 L 203.3 203.2 L 205.2 203.2 L 207.0 220.5 L 208.9 220.5 L 210.8 203.1 L 212.7 203.1 L 214.6 203.1 L 216.4 203.1 L 218.3 203.1 L 220.2 203.1 L 222.1 203.1 L 224.0 203.1 L 225.8 203.1 L 227.7 203.1 L 229.6 203.1 L 231.5 203.1 L 233.4 203.1 L 235.2 203.1 L 237.1 203.1 L 239.0 203.1 L 240.9 203.1 L 242.8 203.1 L 244.6 203.1 L 246.5 203.1 L 248.4 203.1 L 250.3 203.1 L 252.2 203.1 L 254.0 203.1 L 255.9 203.1 L 257.8 203.1 L 259.7 221.3 L 261.6 221.3 L 263.5 221.3 L 265.3 221.3 L 267.2 221.3 L 269.1 221.3 L 271.0 221.3 L 272.9 221.3 L 274.7 221.3 L 276.6 221.3 L 278.5 221.3 L 280.4 221.3 L 282.3 203.0 L 284.1 203.0 L 286.0 178.7 L 287.9 178.7 L 289.8 178.7 L 291.7 178.7 L 293.5 177.3 L 295.4 177.3 L 297.3 125.0 L 299.2 122.1 L 301.1 122.1 L 302.9 122.1 L 304.8 122.1 L 306.7 122.1 L 308.6 122.1 L 310.5 122.1 L 312.3 122.1 L 314.2 122.1 L 316.1 122.1 L 318.0 122.1 L 319.9 122.1 L 321.7 122.1 L 323.6 122.1 L 325.5 122.1 L 327.4 115.7 L 329.3 115.7 L 331.1 115.7 L 333.0 115.7 L 334.9 100.8 L 336.8 100.8 L 338.7 100.8 L 340.5 100.8 L 342.4 100.8 L 344.3 100.8 L 346.2 100.8 L 348.1 92.0 L 350.0 92.0 L 351.8 92.0 L 353.7 92.0 L 355.6 92.0 L 357.5 92.0 L 359.4 92.0 L 361.2 92.0 L 363.1 92.0 L 365.0 92.0 L 366.9 92.0 L 368.8 92.0 L 370.6 92.0 L 372.5 92.0 L 374.4 115.7 L 376.3 115.7 L 378.2 115.7 L 380.0 115.7 L 381.9 95.2 L 383.8 95.2 L 385.7 95.2 L 387.6 95.2 L 389.4 95.2 L 391.3 95.2 L 393.2 95.2 L 395.1 95.2 L 397.0 95.2 L 398.8 95.2 L 400.7 95.2 L 402.6 95.2 L 404.5 95.2 L 406.4 95.2 L 408.2 95.2 L 410.1 95.2 L 412.0 119.2 L 413.9 119.2 L 415.8 119.2 L 417.6 119.2 L 419.5 119.2 L 421.4 119.2 L 423.3 119.2 L 425.2 130.1 L 427.1 130.1 L 428.9 130.1 L 430.8 130.1 L 432.7 130.1 L 434.6 130.1 L 436.5 130.1 L 438.3 130.1 L 440.2 130.1 L 442.1 130.1 L 444.0 130.1 L 445.9 130.1 L 447.7 130.1 L 449.6 130.1 L 451.5 130.1 L 453.4 130.1 L 455.3 130.1 L 457.1 130.1 L 459.0 164.2 L 460.9 164.2 L 462.8 164.2 L 464.7 164.2 L 466.5 164.2 L 468.4 165.3 L 470.3 165.3 L 472.2 165.3 L 474.1 165.3 L 475.9 165.3 L 477.8 165.3 L 479.7 165.3 L 481.6 224.1 L 483.5 227.7 L 485.3 227.7 L 487.2 227.9 L 489.1 227.7 L 491.0 227.7 L 492.9 227.7 L 494.7 185.0 L 496.6 185.0 L 498.5 185.0 L 500.4 200.6 L 502.3 200.6 L 504.2 200.6 L 506.0 200.6 L 507.9 200.6 L 509.8 200.6 L 511.7 200.6 L 513.6 200.6 L 515.4 200.6 L 517.3 200.6 L 519.2 200.6 L 521.1 200.6 L 523.0 200.6 L 524.8 200.6 L 526.7 200.6 L 528.6 200.6 L 530.5 200.6 L 532.4 200.6 L 534.2 200.6 L 536.1 200.6 L 538.0 200.6" fill="none" stroke="#00ff41" stroke-width="2" filter="url(#glow)" pathLength="1" stroke-dasharray="1" stroke-dashoffset="1"><animate attributeName="stroke-dashoffset" from="1" to="0" dur="2.4s" begin="0.3s" fill="freeze"/></path>
<path d="M 66.0 292.0 66.0 243.3 67.9 246.4 69.8 196.7 71.6 199.2 73.5 201.8 75.4 204.4 77.3 207.0 79.2 209.6 81.0 212.2 82.9 213.2 84.8 180.1 86.7 181.2 88.6 182.3 90.4 183.5 92.3 184.6 94.2 185.8 96.1 186.9 98.0 188.1 99.8 189.2 101.7 190.3 103.6 191.5 105.5 193.9 107.4 192.3 109.3 192.7 111.1 193.1 113.0 193.5 114.9 193.9 116.8 194.3 118.7 194.7 120.5 195.1 122.4 195.5 124.3 195.9 126.2 187.1 128.1 187.6 129.9 188.2 131.8 188.7 133.7 189.3 135.6 189.8 137.5 190.4 139.3 190.9 141.2 191.5 143.1 191.5 145.0 191.5 146.9 199.6 148.7 199.6 150.6 199.6 152.5 199.6 154.4 199.6 156.3 199.6 158.1 199.6 160.0 199.6 161.9 203.2 163.8 203.2 165.7 203.2 167.5 203.2 169.4 203.2 171.3 203.2 173.2 203.2 175.1 203.2 176.9 203.2 178.8 203.2 180.7 203.2 182.6 203.1 184.5 203.2 186.4 203.2 188.2 203.2 190.1 203.2 192.0 203.2 193.9 203.2 195.8 203.2 197.6 203.2 199.5 203.2 201.4 203.1 203.3 203.2 205.2 203.2 207.0 220.5 208.9 220.5 210.8 203.1 212.7 203.1 214.6 203.1 216.4 203.1 218.3 203.1 220.2 203.1 222.1 203.1 224.0 203.1 225.8 203.1 227.7 203.1 229.6 203.1 231.5 203.1 233.4 203.1 235.2 203.1 237.1 203.1 239.0 203.1 240.9 203.1 242.8 203.1 244.6 203.1 246.5 203.1 248.4 203.1 250.3 203.1 252.2 203.1 254.0 203.1 255.9 203.1 257.8 203.1 259.7 221.3 261.6 221.3 263.5 221.3 265.3 221.3 267.2 221.3 269.1 221.3 271.0 221.3 272.9 221.3 274.7 221.3 276.6 221.3 278.5 221.3 280.4 221.3 282.3 203.0 284.1 203.0 286.0 178.7 287.9 178.7 289.8 178.7 291.7 178.7 293.5 177.3 295.4 177.3 297.3 125.0 299.2 122.1 301.1 122.1 302.9 122.1 304.8 122.1 306.7 122.1 308.6 122.1 310.5 122.1 312.3 122.1 314.2 122.1 316.1 122.1 318.0 122.1 319.9 122.1 321.7 122.1 323.6 122.1 325.5 122.1 327.4 115.7 329.3 115.7 331.1 115.7 333.0 115.7 334.9 100.8 336.8 100.8 338.7 100.8 340.5 100.8 342.4 100.8 344.3 100.8 346.2 100.8 348.1 92.0 350.0 92.0 351.8 92.0 353.7 92.0 355.6 92.0 357.5 92.0 359.4 92.0 361.2 92.0 363.1 92.0 365.0 92.0 366.9 92.0 368.8 92.0 370.6 92.0 372.5 92.0 374.4 115.7 376.3 115.7 378.2 115.7 380.0 115.7 381.9 95.2 383.8 95.2 385.7 95.2 387.6 95.2 389.4 95.2 391.3 95.2 393.2 95.2 395.1 95.2 397.0 95.2 398.8 95.2 400.7 95.2 402.6 95.2 404.5 95.2 406.4 95.2 408.2 95.2 410.1 95.2 412.0 119.2 413.9 119.2 415.8 119.2 417.6 119.2 419.5 119.2 421.4 119.2 423.3 119.2 425.2 130.1 427.1 130.1 428.9 130.1 430.8 130.1 432.7 130.1 434.6 130.1 436.5 130.1 438.3 130.1 440.2 130.1 442.1 130.1 444.0 130.1 445.9 130.1 447.7 130.1 449.6 130.1 451.5 130.1 453.4 130.1 455.3 130.1 457.1 130.1 459.0 164.2 460.9 164.2 462.8 164.2 464.7 164.2 466.5 164.2 468.4 165.3 470.3 165.3 472.2 165.3 474.1 165.3 475.9 165.3 477.8 165.3 479.7 165.3 481.6 224.1 483.5 227.7 485.3 227.7 487.2 227.9 489.1 227.7 491.0 227.7 492.9 227.7 494.7 185.0 496.6 185.0 498.5 185.0 500.4 200.6 502.3 200.6 504.2 200.6 506.0 200.6 507.9 200.6 509.8 200.6 511.7 200.6 513.6 200.6 515.4 200.6 517.3 200.6 519.2 200.6 521.1 200.6 523.0 200.6 524.8 200.6 526.7 200.6 528.6 200.6 530.5 200.6 532.4 200.6 534.2 200.6 536.1 200.6 538.0 200.6 538.0 292.0 Z" fill="#00ff41" opacity="0"><animate attributeName="opacity" to="0.10" dur="1.0s" begin="2.4s" fill="freeze"/></path>
<circle r="3.6" fill="#00d4ff" filter="url(#glow)"><animateMotion dur="6s" begin="2.6s" repeatCount="indefinite" rotate="0"><mpath href="#varline"/></animateMotion></circle>
<text x="353.1" y="86.0" fill="#00d4ff" font-size="10" font-weight="bold" text-anchor="start" opacity="0"><animate attributeName="opacity" from="0" to="1" dur="0.5s" begin="2.6s" fill="freeze"/>peak 3.0%</text>
</svg>