<svg xmlns="http://www.w3.org/2000/svg" width="540" height="300" viewBox="0 0 540 300" font-family="ui-monospace, SFMono-Regular, monospace">
<defs><filter id="glow" x="-20%" y="-20%" width="140%" height="140%"><feGaussianBlur stdDeviation="1.6" result="b"/><feMerge><feMergeNode in="b"/><feMergeNode in="SourceGraphic"/></feMerge></filter></defs>
<rect width="540" height="300" rx="7" fill="#0d1117"/>
<rect x="0.5" y="0.5" width="539" height="299" rx="7" fill="none" stroke="#00ff41" stroke-opacity="0.30"/>
<text x="58" y="28" fill="#00ff41" font-size="14" font-weight="bold">WIENER PROCESS</text>
<text x="522" y="28" fill="#8b949e" font-size="9.5" text-anchor="end">dWₜ ~ 𝒩(0, dt)</text>
<circle cx="46" cy="24" r="3" fill="#00ff41" filter="url(#glow)"><animate attributeName="opacity" values="1;0.2;1" dur="1.8s" repeatCount="indefinite"/></circle>
<line x1="58" y1="225.9" x2="522" y2="225.9" stroke="#1b2430" stroke-width="1"/>
<text x="50" y="228.9" fill="#8b949e" font-size="9" text-anchor="end">-2.0</text>
<line x1="58" y1="178.5" x2="522" y2="178.5" stroke="#1b2430" stroke-width="1"/>
<text x="50" y="181.5" fill="#8b949e" font-size="9" text-anchor="end">-1.0</text>
<line x1="58" y1="131.2" x2="522" y2="131.2" stroke="#1b2430" stroke-width="1"/>
<text x="50" y="134.2" fill="#8b949e" font-size="9" text-anchor="end">+0.0</text>
<line x1="58" y1="83.8" x2="522" y2="83.8" stroke="#1b2430" stroke-width="1"/>
<text x="50" y="86.8" fill="#8b949e" font-size="9" text-anchor="end">+1.0</text>
<line x1="58.0" y1="52" x2="58.0" y2="256" stroke="#1b2430" stroke-width="1"/>
<text x="58.0" y="271.0" fill="#8b949e" font-size="9" text-anchor="middle">0</text>
<line x1="150.8" y1="52" x2="150.8" y2="256" stroke="#1b2430" stroke-width="1"/>
<text x="150.8" y="271.0" fill="#8b949e" font-size="9" text-anchor="middle">0.2</text>
<line x1="243.6" y1="52" x2="243.6" y2="256" stroke="#1b2430" stroke-width="1"/>
<text x="243.6" y="271.0" fill="#8b949e" font-size="9" text-anchor="middle">0.4</text>
<line x1="336.4" y1="52" x2="336.4" y2="256" stroke="#1b2430" stroke-width="1"/>
<text x="336.4" y="271.0" fill="#8b949e" font-size="9" text-anchor="middle">0.6</text>
<line x1="429.2" y1="52" x2="429.2" y2="256" stroke="#1b2430" stroke-width="1"/>
<text x="429.2" y="271.0" fill="#8b949e" font-size="9" text-anchor="middle">0.8</text>
<line x1="522.0" y1="52" x2="522.0" y2="256" stroke="#1b2430" stroke-width="1"/>
<text x="522.0" y="271.0" fill="#8b949e" font-size="9" text-anchor="middle">1</text>
<text transform="translate(15,154.0) rotate(-90)" fill="#8b949e" font-size="10" text-anchor="middle">Wₜ</text>
<line x1="58" y1="131.2" x2="522" y2="131.2" stroke="#8b949e" stroke-dasharray="3 3" stroke-width="1" opacity="0.4"/>
<path id="p1" d="M 58.0 131.2 L 60.1 130.0 L 62.2 127.4 L 64.3 126.4 L 66.4 130.5 L 68.5 127.6 L 70.7 126.2 L 72.8 127.9 L 74.9 126.1 L 77.0 124.9 L 79.1 124.0 L 81.2 123.9 L 83.3 122.1 L 85.4 124.5 L 87.5 125.0 L 89.6 126.5 L 91.7 124.6 L 93.9 124.5 L 96.0 125.4 L 98.1 127.9 L 100.2 128.8 L 102.3 128.7 L 104.4 129.6 L 106.5 125.5 L 108.6 122.3 L 110.7 130.9 L 112.8 137.0 L 114.9 137.5 L 117.1 138.9 L 119.2 138.2 L 121.3 137.5 L 123.4 130.7 L 125.5 134.3 L 127.6 135.5 L 129.7 129.0 L 131.8 126.9 L 133.9 124.8 L 136.0 126.4 L 138.1 131.7 L 140.3 131.1 L 142.4 130.8 L 144.5 134.7 L 146.6 136.9 L 148.7 137.1 L 150.8 140.1 L 152.9 140.5 L 155.0 140.1 L 157.1 140.0 L 159.2 141.7 L 161.3 139.8 L 163.5 136.9 L 165.6 135.9 L 167.7 138.5 L 169.8 136.2 L 171.9 137.8 L 174.0 135.0 L 176.1 138.4 L 178.2 135.5 L 180.3 135.5 L 182.4 139.5 L 184.5 140.5 L 186.7 140.3 L 188.8 139.5 L 190.9 142.6 L 193.0 146.1 L 195.1 145.5 L 197.2 147.0 L 199.3 146.2 L 201.4 143.8 L 203.5 149.1 L 205.6 148.3 L 207.7 144.4 L 209.9 145.3 L 212.0 147.9 L 214.1 145.5 L 216.2 144.7 L 218.3 141.8 L 220.4 142.9 L 222.5 147.7 L 224.6 148.0 L 226.7 149.4 L 228.8 147.0 L 230.9 146.3 L 233.1 151.5 L 235.2 155.4 L 237.3 152.5 L 239.4 150.4 L 241.5 152.4 L 243.6 152.4 L 245.7 151.0 L 247.8 149.5 L 249.9 146.7 L 252.0 145.9 L 254.1 146.2 L 256.3 147.0 L 258.4 143.6 L 260.5 150.8 L 262.6 151.3 L 264.7 151.2 L 266.8 155.7 L 268.9 154.7 L 271.0 156.7 L 273.1 154.0 L 275.2 154.4 L 277.3 152.2 L 279.5 148.4 L 281.6 147.1 L 283.7 149.9 L 285.8 154.8 L 287.9 149.2 L 290.0 149.5 L 292.1 151.7 L 294.2 151.3 L 296.3 151.9 L 298.4 149.1 L 300.5 149.0 L 302.7 149.0 L 304.8 151.3 L 306.9 149.8 L 309.0 153.1 L 311.1 151.0 L 313.2 146.1 L 315.3 151.0 L 317.4 158.8 L 319.5 156.9 L 321.6 148.7 L 323.7 151.9 L 325.9 155.9 L 328.0 154.0 L 330.1 156.7 L 332.2 158.3 L 334.3 159.4 L 336.4 157.7 L 338.5 159.0 L 340.6 158.2 L 342.7 158.7 L 344.8 161.4 L 346.9 162.4 L 349.1 165.5 L 351.2 165.4 L 353.3 169.0 L 355.4 172.5 L 357.5 167.9 L 359.6 168.0 L 361.7 168.2 L 363.8 166.6 L 365.9 167.9 L 368.0 168.7 L 370.1 167.3 L 372.3 166.4 L 374.4 170.1 L 376.5 167.4 L 378.6 169.3 L 380.7 172.7 L 382.8 175.6 L 384.9 176.8 L 387.0 171.6 L 389.1 175.4 L 391.2 174.9 L 393.3 181.7 L 395.5 181.7 L 397.6 178.8 L 399.7 179.6 L 401.8 181.6 L 403.9 180.8 L 406.0 178.6 L 408.1 176.5 L 410.2 170.2 L 412.3 169.5 L 414.4 171.4 L 416.5 171.8 L 418.7 172.1 L 420.8 171.7 L 422.9 171.8 L 425.0 171.2 L 427.1 176.6 L 429.2 173.9 L 431.3 175.8 L 433.4 179.5 L 435.5 177.5 L 437.6 173.3 L 439.7 171.7 L 441.9 171.2 L 444.0 174.2 L 446.1 165.0 L 448.2 162.2 L 450.3 165.8 L 452.4 168.3 L 454.5 168.0 L 456.6 173.0 L 458.7 172.5 L 460.8 173.9 L 462.9 170.0 L 465.1 166.9 L 467.2 175.6 L 469.3 175.5 L 471.4 180.6 L 473.5 177.1 L 475.6 176.5 L 477.7 174.8 L 479.8 178.2 L 481.9 172.4 L 484.0 165.9 L 486.1 169.3 L 488.3 168.1 L 490.4 170.3 L 492.5 170.3 L 494.6 174.4 L 496.7 168.4 L 498.8 171.5 L 500.9 172.5 L 503.0 170.9 L 505.1 172.9 L 507.2 173.7 L 509.3 175.5 L 511.5 175.9 L 513.6 179.7 L 515.7 181.1 L 517.8 181.7 L 519.9 182.8 L 522.0 182.6" fill="none" stroke="#00ff41" stroke-width="1.6" stroke-dasharray="1" pathLength="1" stroke-dashoffset="1"><animate attributeName="stroke-dashoffset" from="1" to="0" dur="1.8s" begin="0.2s" fill="freeze" calcMode="spline" keyTimes="0;1" keySplines="0.4 0 0.2 1"/></path><circle r="3" fill="#00ff41" filter="url(#glow)" opacity="0"><animate attributeName="opacity" to="0.95" dur="0.3s" begin="2.0s" fill="freeze"/><animateMotion dur="3.2s" begin="2.0s" repeatCount="indefinite" keyPoints="0;1" keyTimes="0;1" calcMode="linear"><mpath href="#p1"/></animateMotion></circle>
<path id="p2" d="M 58.0 131.2 L 60.1 132.1 L 62.2 129.7 L 64.3 130.7 L 66.4 131.1 L 68.5 133.3 L 70.7 135.0 L 72.8 139.0 L 74.9 137.3 L 77.0 141.0 L 79.1 143.4 L 81.2 142.2 L 83.3 140.9 L 85.4 142.2 L 87.5 148.7 L 89.6 147.3 L 91.7 146.5 L 93.9 151.0 L 96.0 148.5 L 98.1 150.8 L 100.2 154.4 L 102.3 154.1 L 104.4 154.6 L 106.5 154.0 L 108.6 159.1 L 110.7 153.3 L 112.8 155.3 L 114.9 160.2 L 117.1 158.2 L 119.2 159.3 L 121.3 158.3 L 123.4 159.4 L 125.5 159.6 L 127.6 158.8 L 129.7 161.2 L 131.8 159.0 L 133.9 160.5 L 136.0 163.3 L 138.1 163.0 L 140.3 161.6 L 142.4 162.3 L 144.5 165.1 L 146.6 163.1 L 148.7 168.7 L 150.8 172.0 L 152.9 171.9 L 155.0 176.2 L 157.1 176.2 L 159.2 176.3 L 161.3 173.5 L 163.5 176.4 L 165.6 178.4 L 167.7 177.3 L 169.8 185.2 L 171.9 175.3 L 174.0 177.5 L 176.1 179.8 L 178.2 177.1 L 180.3 177.2 L 182.4 182.9 L 184.5 180.9 L 186.7 178.2 L 188.8 179.6 L 190.9 180.5 L 193.0 178.9 L 195.1 181.8 L 197.2 180.4 L 199.3 179.8 L 201.4 182.0 L 203.5 186.4 L 205.6 187.1 L 207.7 189.9 L 209.9 186.7 L 212.0 186.3 L 214.1 183.8 L 216.2 183.3 L 218.3 182.5 L 220.4 185.0 L 222.5 182.9 L 224.6 177.2 L 226.7 178.2 L 228.8 180.0 L 230.9 180.5 L 233.1 182.1 L 235.2 184.3 L 237.3 183.9 L 239.4 184.8 L 241.5 180.2 L 243.6 180.2 L 245.7 179.2 L 247.8 176.1 L 249.9 177.1 L 252.0 172.5 L 254.1 174.5 L 256.3 177.1 L 258.4 178.3 L 260.5 178.7 L 262.6 183.1 L 264.7 183.2 L 266.8 188.6 L 268.9 184.1 L 271.0 184.4 L 273.1 186.4 L 275.2 189.3 L 277.3 190.6 L 279.5 191.3 L 281.6 194.6 L 283.7 197.5 L 285.8 198.1 L 287.9 199.8 L 290.0 196.8 L 292.1 193.2 L 294.2 193.1 L 296.3 191.6 L 298.4 195.9 L 300.5 193.8 L 302.7 193.9 L 304.8 192.4 L 306.9 187.3 L 309.0 194.6 L 311.1 193.7 L 313.2 197.2 L 315.3 195.3 L 317.4 199.5 L 319.5 201.1 L 321.6 200.5 L 323.7 198.5 L 325.9 198.3 L 328.0 200.8 L 330.1 202.6 L 332.2 199.7 L 334.3 199.8 L 336.4 205.1 L 338.5 202.4 L 340.6 201.1 L 342.7 198.3 L 344.8 199.4 L 346.9 196.8 L 349.1 200.1 L 351.2 198.3 L 353.3 199.9 L 355.4 197.7 L 357.5 194.5 L 359.6 196.9 L 361.7 197.0 L 363.8 196.9 L 365.9 193.1 L 368.0 190.8 L 370.1 194.7 L 372.3 193.3 L 374.4 190.9 L 376.5 184.1 L 378.6 189.5 L 380.7 191.2 L 382.8 186.9 L 384.9 191.3 L 387.0 195.1 L 389.1 193.4 L 391.2 190.2 L 393.3 192.3 L 395.5 190.6 L 397.6 190.2 L 399.7 185.4 L 401.8 185.4 L 403.9 182.2 L 406.0 185.1 L 408.1 185.7 L 410.2 186.0 L 412.3 182.4 L 414.4 180.5 L 416.5 182.9 L 418.7 180.7 L 420.8 178.3 L 422.9 178.6 L 425.0 179.5 L 427.1 180.1 L 429.2 185.5 L 431.3 184.9 L 433.4 184.1 L 435.5 186.9 L 437.6 184.5 L 439.7 188.9 L 441.9 190.7 L 444.0 192.2 L 446.1 185.8 L 448.2 191.0 L 450.3 189.2 L 452.4 186.1 L 454.5 184.9 L 456.6 181.2 L 458.7 184.4 L 460.8 191.7 L 462.9 189.2 L 465.1 193.0 L 467.2 194.1 L 469.3 197.8 L 471.4 194.5 L 473.5 191.7 L 475.6 194.0 L 477.7 191.1 L 479.8 190.7 L 481.9 191.2 L 484.0 191.0 L 486.1 191.6 L 488.3 189.7 L 490.4 188.7 L 492.5 189.8 L 494.6 186.6 L 496.7 188.5 L 498.8 187.6 L 500.9 186.3 L 503.0 181.6 L 505.1 183.2 L 507.2 177.6 L 509.3 177.0 L 511.5 177.7 L 513.6 179.8 L 515.7 177.9 L 517.8 177.8 L 519.9 181.3 L 522.0 184.9" fill="none" stroke="#00d4ff" stroke-width="1.6" stroke-dasharray="1" pathLength="1" stroke-dashoffset="1"><animate attributeName="stroke-dashoffset" from="1" to="0" dur="1.8s" begin="0.32s" fill="freeze" calcMode="spline" keyTimes="0;1" keySplines="0.4 0 0.2 1"/></path><circle r="3" fill="#00d4ff" filter="url(#glow)" opacity="0"><animate attributeName="opacity" to="0.95" dur="0.3s" begin="2.12s" fill="freeze"/><animateMotion dur="3.8000000000000003s" begin="2.12s" repeatCount="indefinite" keyPoints="0;1" keyTimes="0;1" calcMode="linear"><mpath href="#p2"/></animateMotion></circle>
<path id="p3" d="M 58.0 131.2 L 60.1 132.9 L 62.2 135.1 L 64.3 131.6 L 66.4 127.2 L 68.5 124.4 L 70.7 123.3 L 72.8 124.7 L 74.9 124.5 L 77.0 121.7 L 79.1 114.9 L 81.2 111.9 L 83.3 112.8 L 85.4 112.7 L 87.5 114.3 L 89.6 116.8 L 91.7 117.3 L 93.9 116.7 L 96.0 110.9 L 98.1 110.7 L 100.2 106.4 L 102.3 100.7 L 104.4 100.5 L 106.5 95.3 L 108.6 93.0 L 110.7 94.4 L 112.8 93.5 L 114.9 93.5 L 117.1 94.2 L 119.2 94.8 L 121.3 94.4 L 123.4 93.0 L 125.5 95.8 L 127.6 95.8 L 129.7 100.7 L 131.8 99.9 L 133.9 97.9 L 136.0 97.4 L 138.1 96.4 L 140.3 94.6 L 142.4 96.7 L 144.5 97.4 L 146.6 95.8 L 148.7 92.6 L 150.8 91.4 L 152.9 83.2 L 155.0 83.5 L 157.1 80.3 L 159.2 76.3 L 161.3 76.7 L 163.5 79.3 L 165.6 83.1 L 167.7 82.6 L 169.8 79.0 L 171.9 78.2 L 174.0 77.6 L 176.1 78.8 L 178.2 77.0 L 180.3 83.8 L 182.4 83.1 L 184.5 83.0 L 186.7 87.4 L 188.8 80.4 L 190.9 84.9 L 193.0 88.3 L 195.1 92.1 L 197.2 88.6 L 199.3 91.4 L 201.4 89.3 L 203.5 87.4 L 205.6 86.6 L 207.7 90.8 L 209.9 92.7 L 212.0 87.4 L 214.1 91.5 L 216.2 94.2 L 218.3 94.7 L 220.4 92.1 L 222.5 91.3 L 224.6 88.9 L 226.7 92.3 L 228.8 89.3 L 230.9 87.5 L 233.1 92.6 L 235.2 87.7 L 237.3 80.3 L 239.4 82.8 L 241.5 82.6 L 243.6 78.2 L 245.7 82.9 L 247.8 89.2 L 249.9 93.4 L 252.0 95.2 L 254.1 97.0 L 256.3 95.1 L 258.4 94.2 L 260.5 98.2 L 262.6 96.4 L 264.7 90.4 L 266.8 86.6 L 268.9 83.4 L 271.0 83.4 L 273.1 80.2 L 275.2 83.3 L 277.3 80.9 L 279.5 81.2 L 281.6 77.6 L 283.7 76.1 L 285.8 79.6 L 287.9 79.2 L 290.0 75.3 L 292.1 78.9 L 294.2 80.7 L 296.3 83.1 L 298.4 87.9 L 300.5 84.8 L 302.7 80.7 L 304.8 78.1 L 306.9 77.3 L 309.0 77.5 L 311.1 76.7 L 313.2 79.1 L 315.3 76.2 L 317.4 72.9 L 319.5 69.9 L 321.6 71.6 L 323.7 71.3 L 325.9 71.9 L 328.0 66.2 L 330.1 65.6 L 332.2 71.6 L 334.3 70.3 L 336.4 64.3 L 338.5 62.1 L 340.6 59.3 L 342.7 59.2 L 344.8 65.5 L 346.9 71.3 L 349.1 75.2 L 351.2 75.7 L 353.3 74.7 L 355.4 72.5 L 357.5 73.5 L 359.6 70.5 L 361.7 71.4 L 363.8 73.6 L 365.9 70.9 L 368.0 73.8 L 370.1 82.6 L 372.3 85.9 L 374.4 85.6 L 376.5 95.5 L 378.6 96.6 L 380.7 97.7 L 382.8 102.2 L 384.9 107.0 L 387.0 108.4 L 389.1 110.2 L 391.2 106.2 L 393.3 105.0 L 395.5 110.0 L 397.6 112.7 L 399.7 110.5 L 401.8 104.4 L 403.9 103.2 L 406.0 102.2 L 408.1 96.3 L 410.2 96.3 L 412.3 97.3 L 414.4 101.8 L 416.5 103.5 L 418.7 96.5 L 420.8 101.1 L 422.9 101.0 L 425.0 105.5 L 427.1 105.1 L 429.2 102.3 L 431.3 103.1 L 433.4 100.7 L 435.5 98.4 L 437.6 97.0 L 439.7 91.5 L 441.9 89.0 L 444.0 90.0 L 446.1 92.2 L 448.2 94.9 L 450.3 93.4 L 452.4 94.4 L 454.5 85.7 L 456.6 79.8 L 458.7 80.5 L 460.8 81.5 L 462.9 76.1 L 465.1 82.1 L 467.2 83.6 L 469.3 80.5 L 471.4 83.5 L 473.5 85.0 L 475.6 86.1 L 477.7 84.0 L 479.8 83.6 L 481.9 82.3 L 484.0 80.4 L 486.1 80.3 L 488.3 76.7 L 490.4 79.1 L 492.5 83.6 L 494.6 89.3 L 496.7 94.5 L 498.8 96.3 L 500.9 93.0 L 503.0 92.4 L 505.1 94.3 L 507.2 97.7 L 509.3 99.4 L 511.5 100.7 L 513.6 102.5 L 515.7 107.1 L 517.8 108.6 L 519.9 105.4 L 522.0 112.3" fill="none" stroke="#ffb000" stroke-width="1.6" stroke-dasharray="1" pathLength="1" stroke-dashoffset="1"><animate attributeName="stroke-dashoffset" from="1" to="0" dur="1.8s" begin="0.44s" fill="freeze" calcMode="spline" keyTimes="0;1" keySplines="0.4 0 0.2 1"/></path><circle r="3" fill="#ffb000" filter="url(#glow)" opacity="0"><animate attributeName="opacity" to="0.95" dur="0.3s" begin="2.24s" fill="freeze"/><animateMotion dur="4.4s" begin="2.24s" repeatCount="indefinite" keyPoints="0;1" keyTimes="0;1" calcMode="linear"><mpath href="#p3"/></animateMotion></circle>
<path id="p4" d="M 58.0 131.2 L 60.1 131.9 L 62.2 138.7 L 64.3 138.1 L 66.4 140.5 L 68.5 147.2 L 70.7 146.8 L 72.8 141.0 L 74.9 140.7 L 77.0 137.0 L 79.1 137.2 L 81.2 144.1 L 83.3 142.5 L 85.4 143.9 L 87.5 148.5 L 89.6 146.0 L 91.7 145.1 L 93.9 146.8 L 96.0 144.0 L 98.1 146.8 L 100.2 144.7 L 102.3 147.7 L 104.4 146.0 L 106.5 149.6 L 108.6 144.8 L 110.7 144.0 L 112.8 139.4 L 114.9 142.0 L 117.1 143.6 L 119.2 140.9 L 121.3 149.6 L 123.4 153.0 L 125.5 149.7 L 127.6 148.3 L 129.7 145.1 L 131.8 146.1 L 133.9 144.3 L 136.0 146.7 L 138.1 151.0 L 140.3 156.4 L 142.4 158.2 L 144.5 160.0 L 146.6 162.0 L 148.7 173.3 L 150.8 179.7 L 152.9 181.4 L 155.0 180.5 L 157.1 182.3 L 159.2 185.1 L 161.3 192.5 L 163.5 186.0 L 165.6 189.6 L 167.7 184.2 L 169.8 179.2 L 171.9 178.3 L 174.0 180.1 L 176.1 179.7 L 178.2 183.4 L 180.3 182.6 L 182.4 182.6 L 184.5 180.9 L 186.7 177.8 L 188.8 172.3 L 190.9 173.5 L 193.0 170.2 L 195.1 172.7 L 197.2 175.6 L 199.3 177.6 L 201.4 180.7 L 203.5 177.6 L 205.6 174.6 L 207.7 170.6 L 209.9 170.6 L 212.0 169.8 L 214.1 171.6 L 216.2 175.3 L 218.3 173.9 L 220.4 173.0 L 222.5 176.5 L 224.6 174.7 L 226.7 180.2 L 228.8 180.8 L 230.9 182.8 L 233.1 184.5 L 235.2 188.0 L 237.3 184.9 L 239.4 183.1 L 241.5 179.3 L 243.6 178.9 L 245.7 183.1 L 247.8 184.3 L 249.9 188.1 L 252.0 186.7 L 254.1 182.8 L 256.3 181.8 L 258.4 183.8 L 260.5 185.0 L 262.6 184.4 L 264.7 189.0 L 266.8 188.6 L 268.9 188.0 L 271.0 189.8 L 273.1 191.2 L 275.2 190.7 L 277.3 193.4 L 279.5 196.1 L 281.6 193.7 L 283.7 193.0 L 285.8 187.7 L 287.9 190.9 L 290.0 196.7 L 292.1 193.7 L 294.2 190.8 L 296.3 193.2 L 298.4 198.0 L 300.5 198.2 L 302.7 203.9 L 304.8 205.0 L 306.9 212.1 L 309.0 213.0 L 311.1 219.8 L 313.2 220.7 L 315.3 215.9 L 317.4 216.9 L 319.5 214.6 L 321.6 216.7 L 323.7 219.7 L 325.9 224.6 L 328.0 221.4 L 330.1 221.7 L 332.2 216.6 L 334.3 220.5 L 336.4 221.4 L 338.5 221.3 L 340.6 216.9 L 342.7 211.2 L 344.8 213.4 L 346.9 217.2 L 349.1 222.9 L 351.2 218.8 L 353.3 219.2 L 355.4 221.5 L 357.5 221.8 L 359.6 230.1 L 361.7 235.8 L 363.8 233.0 L 365.9 231.9 L 368.0 231.5 L 370.1 234.9 L 372.3 233.2 L 374.4 227.7 L 376.5 231.8 L 378.6 231.9 L 380.7 233.5 L 382.8 232.5 L 384.9 232.6 L 387.0 233.2 L 389.1 236.2 L 391.2 236.4 L 393.3 238.6 L 395.5 239.2 L 397.6 239.6 L 399.7 237.7 L 401.8 239.7 L 403.9 240.9 L 406.0 237.7 L 408.1 238.5 L 410.2 239.5 L 412.3 237.0 L 414.4 236.3 L 416.5 236.1 L 418.7 235.6 L 420.8 239.7 L 422.9 238.4 L 425.0 234.4 L 427.1 232.7 L 429.2 237.8 L 431.3 237.1 L 433.4 240.1 L 435.5 241.0 L 437.6 240.7 L 439.7 244.7 L 441.9 240.5 L 444.0 240.9 L 446.1 238.5 L 448.2 236.6 L 450.3 232.4 L 452.4 228.8 L 454.5 233.6 L 456.6 233.6 L 458.7 240.5 L 460.8 242.0 L 462.9 239.9 L 465.1 237.1 L 467.2 233.1 L 469.3 234.4 L 471.4 233.5 L 473.5 233.3 L 475.6 229.3 L 477.7 224.4 L 479.8 225.6 L 481.9 213.6 L 484.0 213.8 L 486.1 215.0 L 488.3 213.2 L 490.4 210.9 L 492.5 209.2 L 494.6 211.4 L 496.7 206.8 L 498.8 206.7 L 500.9 201.9 L 503.0 197.5 L 505.1 201.7 L 507.2 204.9 L 509.3 208.2 L 511.5 207.4 L 513.6 207.3 L 515.7 206.5 L 517.8 209.2 L 519.9 207.9 L 522.0 203.5" fill="none" stroke="#ff8a3d" stroke-width="1.6" stroke-dasharray="1" pathLength="1" stroke-dashoffset="1"><animate attributeName="stroke-dashoffset" from="1" to="0" dur="1.8s" begin="0.56s" fill="freeze" calcMode="spline" keyTimes="0;1" keySplines="0.4 0 0.2 1"/></path><circle r="3" fill="#ff8a3d" filter="url(#glow)" opacity="0"><animate attributeName="opacity" to="0.95" dur="0.3s" begin="2.3600000000000003s" fill="freeze"/><animateMotion dur="5.0s" begin="2.3600000000000003s" repeatCount="indefinite" keyPoints="0;1" keyTimes="0;1" calcMode="linear"><mpath href="#p4"/></animateMotion></circle>
<path id="p5" d="M 58.0 131.2 L 60.1 135.5 L 62.2 136.2 L 64.3 135.4 L 66.4 135.9 L 68.5 136.6 L 70.7 131.0 L 72.8 126.9 L 74.9 124.3 L 77.0 126.8 L 79.1 119.6 L 81.2 118.5 L 83.3 120.4 L 85.4 121.6 L 87.5 123.2 L 89.6 116.4 L 91.7 115.8 L 93.9 115.7 L 96.0 122.6 L 98.1 120.3 L 100.2 123.7 L 102.3 127.4 L 104.4 125.4 L 106.5 128.2 L 108.6 125.6 L 110.7 122.1 L 112.8 127.8 L 114.9 128.3 L 117.1 133.4 L 119.2 133.6 L 121.3 130.7 L 123.4 135.1 L 125.5 129.4 L 127.6 130.5 L 129.7 134.3 L 131.8 134.7 L 133.9 132.2 L 136.0 136.7 L 138.1 136.7 L 140.3 141.2 L 142.4 137.4 L 144.5 136.9 L 146.6 138.4 L 148.7 135.1 L 150.8 139.3 L 152.9 140.6 L 155.0 134.8 L 157.1 135.2 L 159.2 130.9 L 161.3 130.4 L 163.5 132.7 L 165.6 133.5 L 167.7 133.3 L 169.8 134.7 L 171.9 137.4 L 174.0 140.0 L 176.1 144.8 L 178.2 144.5 L 180.3 143.3 L 182.4 141.0 L 184.5 146.8 L 186.7 144.3 L 188.8 144.4 L 190.9 149.1 L 193.0 148.8 L 195.1 146.3 L 197.2 144.7 L 199.3 142.5 L 201.4 139.5 L 203.5 136.7 L 205.6 136.9 L 207.7 143.6 L 209.9 146.1 L 212.0 145.1 L 214.1 146.6 L 216.2 144.5 L 218.3 142.0 L 220.4 141.9 L 222.5 136.0 L 224.6 139.2 L 226.7 136.3 L 228.8 137.8 L 230.9 140.4 L 233.1 138.6 L 235.2 140.6 L 237.3 137.9 L 239.4 141.7 L 241.5 141.7 L 243.6 144.4 L 245.7 145.2 L 247.8 146.5 L 249.9 150.1 L 252.0 148.1 L 254.1 152.2 L 256.3 155.3 L 258.4 152.6 L 260.5 149.5 L 262.6 147.4 L 264.7 146.4 L 266.8 139.2 L 268.9 143.1 L 271.0 145.5 L 273.1 148.8 L 275.2 146.0 L 277.3 145.1 L 279.5 141.6 L 281.6 138.5 L 283.7 139.3 L 285.8 142.0 L 287.9 145.2 L 290.0 138.2 L 292.1 135.2 L 294.2 133.3 L 296.3 134.4 L 298.4 135.1 L 300.5 136.3 L 302.7 137.3 L 304.8 145.1 L 306.9 145.3 L 309.0 146.6 L 311.1 145.7 L 313.2 145.1 L 315.3 142.4 L 317.4 142.5 L 319.5 140.0 L 321.6 148.2 L 323.7 151.8 L 325.9 146.3 L 328.0 150.3 L 330.1 151.2 L 332.2 149.0 L 334.3 151.8 L 336.4 149.6 L 338.5 154.2 L 340.6 160.3 L 342.7 164.6 L 344.8 170.0 L 346.9 170.1 L 349.1 171.1 L 351.2 170.1 L 353.3 173.5 L 355.4 165.4 L 357.5 165.7 L 359.6 165.9 L 361.7 164.5 L 363.8 165.3 L 365.9 167.4 L 368.0 167.2 L 370.1 164.3 L 372.3 162.2 L 374.4 159.2 L 376.5 161.1 L 378.6 163.6 L 380.7 157.2 L 382.8 158.1 L 384.9 156.6 L 387.0 154.2 L 389.1 149.7 L 391.2 154.1 L 393.3 155.7 L 395.5 157.1 L 397.6 158.1 L 399.7 165.8 L 401.8 166.2 L 403.9 175.5 L 406.0 174.5 L 408.1 172.9 L 410.2 171.0 L 412.3 174.9 L 414.4 171.8 L 416.5 174.6 L 418.7 178.6 L 420.8 181.7 L 422.9 184.5 L 425.0 184.0 L 427.1 181.4 L 429.2 188.1 L 431.3 189.8 L 433.4 187.0 L 435.5 186.4 L 437.6 184.8 L 439.7 189.6 L 441.9 186.5 L 444.0 191.5 L 446.1 190.9 L 448.2 186.6 L 450.3 180.6 L 452.4 179.0 L 454.5 176.1 L 456.6 178.1 L 458.7 179.6 L 460.8 175.9 L 462.9 175.9 L 465.1 176.3 L 467.2 180.8 L 469.3 180.3 L 471.4 178.2 L 473.5 180.8 L 475.6 182.4 L 477.7 177.4 L 479.8 176.8 L 481.9 177.7 L 484.0 181.3 L 486.1 183.3 L 488.3 184.1 L 490.4 179.7 L 492.5 181.7 L 494.6 176.0 L 496.7 178.9 L 498.8 180.1 L 500.9 177.4 L 503.0 178.1 L 505.1 180.8 L 507.2 181.2 L 509.3 179.8 L 511.5 185.3 L 513.6 186.1 L 515.7 186.4 L 517.8 187.7 L 519.9 185.3 L 522.0 187.2" fill="none" stroke="#a974ff" stroke-width="1.6" stroke-dasharray="1" pathLength="1" stroke-dashoffset="1"><animate attributeName="stroke-dashoffset" from="1" to="0" dur="1.8s" begin="0.6799999999999999s" fill="freeze" calcMode="spline" keyTimes="0;1" keySplines="0.4 0 0.2 1"/></path><circle r="3" fill="#a974ff" filter="url(#glow)" opacity="0"><animate attributeName="opacity" to="0.95" dur="0.3s" begin="2.48s" fill="freeze"/><animateMotion dur="5.6s" begin="2.48s" repeatCount="indefinite" keyPoints="0;1" keyTimes="0;1" calcMode="linear"><mpath href="#p5"/></animateMotion></circle>
<text x="58" y="288" fill="#00ff41" font-size="10" opacity="0"><animate attributeName="opacity" to="0.9" dur="0.6s" begin="1.6s" fill="freeze"/>▸ USE: foundation of continuous-time finance</text>
</svg>