<svg xmlns="http://www.w3.org/2000/svg" width="540" height="300" viewBox="0 0 540 300" font-family="ui-monospace, SFMono-Regular, monospace">
<defs><filter id="glow" x="-20%" y="-20%" width="140%" height="140%"><feGaussianBlur stdDeviation="1.6" result="b"/><feMerge><feMergeNode in="b"/><feMergeNode in="SourceGraphic"/></feMerge></filter></defs>
<rect width="540" height="300" rx="7" fill="#0d1117"/>
<rect x="0.5" y="0.5" width="539" height="299" rx="7" fill="none" stroke="#00ff41" stroke-opacity="0.30"/>
<text x="58" y="28" fill="#00ff41" font-size="14" font-weight="bold">GEOMETRIC BROWNIAN MOTION</text>
<text x="522" y="28" fill="#8b949e" font-size="9.5" text-anchor="end">dSₜ = μSₜ dt + σSₜ dWₜ</text>
<circle cx="46" cy="24" r="3" fill="#00ff41" filter="url(#glow)"><animate attributeName="opacity" values="1;0.2;1" dur="1.8s" repeatCount="indefinite"/></circle>
<line x1="58" y1="254.0" x2="522" y2="254.0" stroke="#1b2430" stroke-width="1"/>
<text x="50" y="257.0" fill="#8b949e" font-size="9" text-anchor="end">50</text>
<line x1="58" y1="207.8" x2="522" y2="207.8" stroke="#1b2430" stroke-width="1"/>
<text x="50" y="210.8" fill="#8b949e" font-size="9" text-anchor="end">75</text>
<line x1="58" y1="161.6" x2="522" y2="161.6" stroke="#1b2430" stroke-width="1"/>
<text x="50" y="164.6" fill="#8b949e" font-size="9" text-anchor="end">100</text>
<line x1="58" y1="115.4" x2="522" y2="115.4" stroke="#1b2430" stroke-width="1"/>
<text x="50" y="118.4" fill="#8b949e" font-size="9" text-anchor="end">125</text>
<line x1="58" y1="69.2" x2="522" y2="69.2" stroke="#1b2430" stroke-width="1"/>
<text x="50" y="72.2" fill="#8b949e" font-size="9" text-anchor="end">150</text>
<line x1="58.0" y1="52" x2="58.0" y2="256" stroke="#1b2430" stroke-width="1"/>
<text x="58.0" y="271.0" fill="#8b949e" font-size="9" text-anchor="middle">0</text>
<line x1="150.8" y1="52" x2="150.8" y2="256" stroke="#1b2430" stroke-width="1"/>
<text x="150.8" y="271.0" fill="#8b949e" font-size="9" text-anchor="middle">0.2</text>
<line x1="243.6" y1="52" x2="243.6" y2="256" stroke="#1b2430" stroke-width="1"/>
<text x="243.6" y="271.0" fill="#8b949e" font-size="9" text-anchor="middle">0.4</text>
<line x1="336.4" y1="52" x2="336.4" y2="256" stroke="#1b2430" stroke-width="1"/>
<text x="336.4" y="271.0" fill="#8b949e" font-size="9" text-anchor="middle">0.6</text>
<line x1="429.2" y1="52" x2="429.2" y2="256" stroke="#1b2430" stroke-width="1"/>
<text x="429.2" y="271.0" fill="#8b949e" font-size="9" text-anchor="middle">0.8</text>
<line x1="522.0" y1="52" x2="522.0" y2="256" stroke="#1b2430" stroke-width="1"/>
<text x="522.0" y="271.0" fill="#8b949e" font-size="9" text-anchor="middle">1</text>
<text transform="translate(15,154.0) rotate(-90)" fill="#8b949e" font-size="10" text-anchor="middle">Sₜ</text>
<line x1="58" y1="161.6" x2="522" y2="161.6" stroke="#8b949e" stroke-dasharray="3 3" stroke-width="1" opacity="0.4"/>
<path id="p1" d="M 58.0 161.6 L 60.1 160.5 L 62.2 163.4 L 64.3 165.6 L 66.4 178.5 L 68.5 169.0 L 70.7 162.7 L 72.8 164.5 L 74.9 160.2 L 77.0 158.5 L 79.1 161.6 L 81.2 156.0 L 83.3 157.8 L 85.4 159.6 L 87.5 164.0 L 89.6 161.5 L 91.7 162.0 L 93.9 158.9 L 96.0 162.3 L 98.1 161.5 L 100.2 166.4 L 102.3 161.7 L 104.4 160.7 L 106.5 158.8 L 108.6 156.4 L 110.7 162.1 L 112.8 157.6 L 114.9 145.4 L 117.1 155.1 L 119.2 164.9 L 121.3 172.9 L 123.4 168.4 L 125.5 167.7 L 127.6 161.7 L 129.7 157.6 L 131.8 156.4 L 133.9 154.7 L 136.0 155.6 L 138.1 150.5 L 140.3 157.1 L 142.4 159.4 L 144.5 158.0 L 146.6 147.4 L 148.7 151.9 L 150.8 158.2 L 152.9 161.3 L 155.0 155.8 L 157.1 157.1 L 159.2 149.3 L 161.3 160.1 L 163.5 153.6 L 165.6 147.4 L 167.7 155.8 L 169.8 154.9 L 171.9 147.6 L 174.0 147.1 L 176.1 140.9 L 178.2 125.5 L 180.3 123.6 L 182.4 125.5 L 184.5 130.5 L 186.7 126.2 L 188.8 127.5 L 190.9 128.6 L 193.0 129.3 L 195.1 124.9 L 197.2 131.9 L 199.3 141.6 L 201.4 156.2 L 203.5 149.1 L 205.6 148.6 L 207.7 139.3 L 209.9 139.3 L 212.0 143.9 L 214.1 140.9 L 216.2 141.4 L 218.3 149.0 L 220.4 154.2 L 222.5 143.5 L 224.6 141.3 L 226.7 138.7 L 228.8 140.4 L 230.9 144.6 L 233.1 139.0 L 235.2 139.7 L 237.3 144.3 L 239.4 145.1 L 241.5 150.5 L 243.6 149.4 L 245.7 142.5 L 247.8 147.5 L 249.9 138.7 L 252.0 142.8 L 254.1 141.8 L 256.3 146.9 L 258.4 148.2 L 260.5 147.9 L 262.6 150.5 L 264.7 154.6 L 266.8 158.4 L 268.9 163.0 L 271.0 171.5 L 273.1 172.9 L 275.2 170.7 L 277.3 165.8 L 279.5 162.2 L 281.6 147.9 L 283.7 145.9 L 285.8 148.7 L 287.9 137.1 L 290.0 143.6 L 292.1 137.5 L 294.2 143.4 L 296.3 141.2 L 298.4 153.1 L 300.5 147.7 L 302.7 148.6 L 304.8 154.3 L 306.9 144.2 L 309.0 139.4 L 311.1 139.1 L 313.2 143.7 L 315.3 143.9 L 317.4 144.9 L 319.5 140.4 L 321.6 135.3 L 323.7 139.5 L 325.9 142.9 L 328.0 146.1 L 330.1 154.1 L 332.2 157.5 L 334.3 158.0 L 336.4 154.0 L 338.5 146.1 L 340.6 150.9 L 342.7 147.5 L 344.8 150.2 L 346.9 137.4 L 349.1 137.7 L 351.2 134.4 L 353.3 140.3 L 355.4 145.3 L 357.5 144.0 L 359.6 146.3 L 361.7 144.1 L 363.8 153.5 L 365.9 149.5 L 368.0 154.8 L 370.1 144.5 L 372.3 146.2 L 374.4 139.4 L 376.5 147.9 L 378.6 145.3 L 380.7 150.6 L 382.8 153.4 L 384.9 153.2 L 387.0 155.1 L 389.1 153.5 L 391.2 149.0 L 393.3 145.0 L 395.5 145.5 L 397.6 153.6 L 399.7 158.3 L 401.8 159.3 L 403.9 171.0 L 406.0 166.9 L 408.1 168.2 L 410.2 169.5 L 412.3 164.3 L 414.4 160.5 L 416.5 159.2 L 418.7 164.8 L 420.8 163.1 L 422.9 161.1 L 425.0 166.0 L 427.1 160.1 L 429.2 157.2 L 431.3 168.2 L 433.4 167.5 L 435.5 174.2 L 437.6 168.1 L 439.7 163.6 L 441.9 169.6 L 444.0 174.3 L 446.1 173.7 L 448.2 174.9 L 450.3 166.8 L 452.4 162.7 L 454.5 164.2 L 456.6 160.9 L 458.7 172.0 L 460.8 170.3 L 462.9 165.6 L 465.1 166.6 L 467.2 170.4 L 469.3 167.3 L 471.4 156.3 L 473.5 155.1 L 475.6 161.4 L 477.7 153.1 L 479.8 163.8 L 481.9 160.9 L 484.0 164.1 L 486.1 158.9 L 488.3 163.6 L 490.4 156.1 L 492.5 154.3 L 494.6 164.1 L 496.7 174.7 L 498.8 176.3 L 500.9 169.4 L 503.0 168.7 L 505.1 168.3 L 507.2 169.6 L 509.3 165.5 L 511.5 163.4 L 513.6 161.8 L 515.7 167.2 L 517.8 160.6 L 519.9 152.7 L 522.0 160.2" fill="none" stroke="#00ff41" stroke-width="1.6" stroke-dasharray="1" pathLength="1" stroke-dashoffset="1"><animate attributeName="stroke-dashoffset" from="1" to="0" dur="1.8s" begin="0.2s" fill="freeze" calcMode="spline" keyTimes="0;1" keySplines="0.4 0 0.2 1"/></path><circle r="3" fill="#00ff41" filter="url(#glow)" opacity="0"><animate attributeName="opacity" to="0.95" dur="0.3s" begin="2.0s" fill="freeze"/><animateMotion dur="3.2s" begin="2.0s" repeatCount="indefinite" keyPoints="0;1" keyTimes="0;1" calcMode="linear"><mpath href="#p1"/></animateMotion></circle>
<path id="p2" d="M 58.0 161.6 L 60.1 148.2 L 62.2 143.8 L 64.3 146.7 L 66.4 157.9 L 68.5 154.0 L 70.7 150.7 L 72.8 154.2 L 74.9 164.3 L 77.0 158.0 L 79.1 161.3 L 81.2 163.9 L 83.3 147.4 L 85.4 134.1 L 87.5 127.8 L 89.6 130.8 L 91.7 126.4 L 93.9 141.1 L 96.0 140.4 L 98.1 145.1 L 100.2 152.7 L 102.3 161.8 L 104.4 158.8 L 106.5 158.2 L 108.6 157.3 L 110.7 152.4 L 112.8 157.2 L 114.9 164.2 L 117.1 173.7 L 119.2 175.4 L 121.3 171.4 L 123.4 172.2 L 125.5 168.7 L 127.6 174.9 L 129.7 177.3 L 131.8 181.2 L 133.9 187.3 L 136.0 178.0 L 138.1 173.6 L 140.3 177.5 L 142.4 181.4 L 144.5 181.6 L 146.6 188.6 L 148.7 186.5 L 150.8 192.6 L 152.9 194.3 L 155.0 199.0 L 157.1 201.1 L 159.2 206.8 L 161.3 213.3 L 163.5 217.1 L 165.6 219.7 L 167.7 220.8 L 169.8 220.5 L 171.9 214.5 L 174.0 211.2 L 176.1 212.2 L 178.2 209.2 L 180.3 212.0 L 182.4 206.0 L 184.5 203.6 L 186.7 209.3 L 188.8 206.1 L 190.9 202.6 L 193.0 213.8 L 195.1 216.8 L 197.2 218.6 L 199.3 225.8 L 201.4 229.6 L 203.5 232.9 L 205.6 231.2 L 207.7 230.1 L 209.9 220.4 L 212.0 221.9 L 214.1 217.4 L 216.2 217.1 L 218.3 216.0 L 220.4 220.5 L 222.5 227.6 L 224.6 230.3 L 226.7 227.5 L 228.8 221.7 L 230.9 219.3 L 233.1 217.4 L 235.2 220.6 L 237.3 214.6 L 239.4 209.1 L 241.5 211.3 L 243.6 211.4 L 245.7 215.4 L 247.8 209.4 L 249.9 207.7 L 252.0 208.1 L 254.1 206.3 L 256.3 204.4 L 258.4 206.2 L 260.5 211.3 L 262.6 216.5 L 264.7 223.1 L 266.8 221.4 L 268.9 212.6 L 271.0 219.3 L 273.1 218.8 L 275.2 217.1 L 277.3 220.9 L 279.5 220.1 L 281.6 224.2 L 283.7 219.7 L 285.8 221.9 L 287.9 221.5 L 290.0 218.9 L 292.1 220.5 L 294.2 227.1 L 296.3 229.0 L 298.4 226.3 L 300.5 226.5 L 302.7 225.7 L 304.8 229.6 L 306.9 229.0 L 309.0 226.4 L 311.1 226.2 L 313.2 219.0 L 315.3 219.8 L 317.4 223.7 L 319.5 229.6 L 321.6 225.4 L 323.7 225.6 L 325.9 221.8 L 328.0 220.1 L 330.1 213.7 L 332.2 208.4 L 334.3 210.0 L 336.4 208.8 L 338.5 204.2 L 340.6 209.4 L 342.7 203.2 L 344.8 197.8 L 346.9 193.3 L 349.1 194.2 L 351.2 192.8 L 353.3 197.9 L 355.4 197.6 L 357.5 200.2 L 359.6 199.8 L 361.7 201.9 L 363.8 200.7 L 365.9 195.3 L 368.0 201.2 L 370.1 197.0 L 372.3 205.8 L 374.4 214.7 L 376.5 215.1 L 378.6 215.1 L 380.7 213.3 L 382.8 219.7 L 384.9 219.9 L 387.0 219.4 L 389.1 214.5 L 391.2 214.9 L 393.3 212.7 L 395.5 216.6 L 397.6 217.3 L 399.7 219.0 L 401.8 216.2 L 403.9 220.1 L 406.0 223.2 L 408.1 221.0 L 410.2 214.0 L 412.3 212.4 L 414.4 211.2 L 416.5 212.6 L 418.7 208.0 L 420.8 205.7 L 422.9 198.1 L 425.0 196.6 L 427.1 200.8 L 429.2 203.3 L 431.3 207.5 L 433.4 212.6 L 435.5 207.4 L 437.6 203.9 L 439.7 209.1 L 441.9 201.5 L 444.0 200.4 L 446.1 204.5 L 448.2 202.8 L 450.3 203.1 L 452.4 206.4 L 454.5 214.4 L 456.6 214.2 L 458.7 213.0 L 460.8 223.0 L 462.9 220.9 L 465.1 218.5 L 467.2 220.3 L 469.3 219.9 L 471.4 220.9 L 473.5 224.0 L 475.6 225.3 L 477.7 220.3 L 479.8 225.7 L 481.9 224.8 L 484.0 224.1 L 486.1 226.6 L 488.3 228.2 L 490.4 233.1 L 492.5 236.0 L 494.6 235.9 L 496.7 234.8 L 498.8 237.8 L 500.9 227.2 L 503.0 229.2 L 505.1 228.7 L 507.2 229.5 L 509.3 230.9 L 511.5 226.3 L 513.6 228.0 L 515.7 223.1 L 517.8 218.7 L 519.9 222.7 L 522.0 218.7" fill="none" stroke="#00d4ff" stroke-width="1.6" stroke-dasharray="1" pathLength="1" stroke-dashoffset="1"><animate attributeName="stroke-dashoffset" from="1" to="0" dur="1.8s" begin="0.32s" fill="freeze" calcMode="spline" keyTimes="0;1" keySplines="0.4 0 0.2 1"/></path><circle r="3" fill="#00d4ff" filter="url(#glow)" opacity="0"><animate attributeName="opacity" to="0.95" dur="0.3s" begin="2.12s" fill="freeze"/><animateMotion dur="3.8000000000000003s" begin="2.12s" repeatCount="indefinite" keyPoints="0;1" keyTimes="0;1" calcMode="linear"><mpath href="#p2"/></animateMotion></circle>
<path id="p3" d="M 58.0 161.6 L 60.1 165.2 L 62.2 149.4 L 64.3 151.7 L 66.4 157.1 L 68.5 167.8 L 70.7 174.6 L 72.8 177.6 L 74.9 182.6 L 77.0 188.5 L 79.1 191.8 L 81.2 192.7 L 83.3 185.8 L 85.4 193.9 L 87.5 196.4 L 89.6 200.6 L 91.7 207.2 L 93.9 212.4 L 96.0 216.0 L 98.1 213.1 L 100.2 213.9 L 102.3 216.0 L 104.4 213.5 L 106.5 212.4 L 108.6 213.2 L 110.7 211.6 L 112.8 215.0 L 114.9 212.4 L 117.1 210.5 L 119.2 212.1 L 121.3 217.0 L 123.4 210.9 L 125.5 210.5 L 127.6 197.3 L 129.7 200.2 L 131.8 196.3 L 133.9 198.2 L 136.0 197.1 L 138.1 193.2 L 140.3 196.9 L 142.4 197.3 L 144.5 196.5 L 146.6 196.0 L 148.7 193.2 L 150.8 188.3 L 152.9 184.3 L 155.0 182.9 L 157.1 184.6 L 159.2 190.0 L 161.3 193.5 L 163.5 195.9 L 165.6 192.7 L 167.7 194.4 L 169.8 200.0 L 171.9 197.1 L 174.0 200.7 L 176.1 204.0 L 178.2 205.0 L 180.3 202.9 L 182.4 213.0 L 184.5 217.4 L 186.7 216.7 L 188.8 218.1 L 190.9 221.4 L 193.0 223.4 L 195.1 218.1 L 197.2 219.9 L 199.3 217.1 L 201.4 213.9 L 203.5 215.7 L 205.6 213.9 L 207.7 215.7 L 209.9 218.0 L 212.0 222.3 L 214.1 219.0 L 216.2 220.5 L 218.3 222.6 L 220.4 226.7 L 222.5 219.9 L 224.6 217.0 L 226.7 217.5 L 228.8 220.2 L 230.9 225.9 L 233.1 224.8 L 235.2 223.7 L 237.3 228.8 L 239.4 224.6 L 241.5 221.7 L 243.6 225.2 L 245.7 227.2 L 247.8 228.7 L 249.9 228.1 L 252.0 228.6 L 254.1 234.3 L 256.3 229.2 L 258.4 228.0 L 260.5 223.4 L 262.6 218.6 L 264.7 219.4 L 266.8 218.0 L 268.9 215.1 L 271.0 212.0 L 273.1 212.6 L 275.2 215.1 L 277.3 214.9 L 279.5 218.1 L 281.6 220.2 L 283.7 227.7 L 285.8 227.4 L 287.9 231.0 L 290.0 232.9 L 292.1 233.1 L 294.2 232.0 L 296.3 225.2 L 298.4 224.4 L 300.5 229.5 L 302.7 229.0 L 304.8 231.1 L 306.9 229.7 L 309.0 232.1 L 311.1 234.5 L 313.2 236.2 L 315.3 238.3 L 317.4 244.1 L 319.5 246.1 L 321.6 246.1 L 323.7 242.4 L 325.9 243.3 L 328.0 244.4 L 330.1 242.6 L 332.2 240.9 L 334.3 235.6 L 336.4 233.6 L 338.5 233.6 L 340.6 229.0 L 342.7 223.4 L 344.8 225.1 L 346.9 224.5 L 349.1 230.5 L 351.2 231.8 L 353.3 234.8 L 355.4 235.5 L 357.5 237.1 L 359.6 237.6 L 361.7 237.9 L 363.8 236.3 L 365.9 235.5 L 368.0 237.3 L 370.1 241.5 L 372.3 237.5 L 374.4 232.7 L 376.5 234.2 L 378.6 232.3 L 380.7 237.4 L 382.8 242.4 L 384.9 243.3 L 387.0 238.5 L 389.1 241.9 L 391.2 244.5 L 393.3 239.4 L 395.5 245.3 L 397.6 243.3 L 399.7 241.8 L 401.8 242.4 L 403.9 241.8 L 406.0 233.1 L 408.1 236.9 L 410.2 237.9 L 412.3 238.7 L 414.4 240.9 L 416.5 245.1 L 418.7 240.0 L 420.8 239.3 L 422.9 244.8 L 425.0 247.0 L 427.1 245.7 L 429.2 244.5 L 431.3 248.8 L 433.4 249.1 L 435.5 248.3 L 437.6 247.1 L 439.7 245.9 L 441.9 251.2 L 444.0 245.7 L 446.1 245.1 L 448.2 239.4 L 450.3 229.6 L 452.4 230.2 L 454.5 234.4 L 456.6 231.4 L 458.7 232.0 L 460.8 233.6 L 462.9 237.0 L 465.1 231.3 L 467.2 232.8 L 469.3 237.5 L 471.4 238.9 L 473.5 242.6 L 475.6 242.1 L 477.7 243.4 L 479.8 246.6 L 481.9 244.8 L 484.0 246.7 L 486.1 244.5 L 488.3 240.5 L 490.4 241.6 L 492.5 243.7 L 494.6 243.0 L 496.7 240.2 L 498.8 240.2 L 500.9 239.7 L 503.0 239.8 L 505.1 238.7 L 507.2 236.6 L 509.3 238.9 L 511.5 240.5 L 513.6 240.3 L 515.7 242.4 L 517.8 242.0 L 519.9 240.3 L 522.0 240.3" fill="none" stroke="#ffb000" stroke-width="1.6" stroke-dasharray="1" pathLength="1" stroke-dashoffset="1"><animate attributeName="stroke-dashoffset" from="1" to="0" dur="1.8s" begin="0.44s" fill="freeze" calcMode="spline" keyTimes="0;1" keySplines="0.4 0 0.2 1"/></path><circle r="3" fill="#ffb000" filter="url(#glow)" opacity="0"><animate attributeName="opacity" to="0.95" dur="0.3s" begin="2.24s" fill="freeze"/><animateMotion dur="4.4s" begin="2.24s" repeatCount="indefinite" keyPoints="0;1" keyTimes="0;1" calcMode="linear"><mpath href="#p3"/></animateMotion></circle>
<path id="p4" d="M 58.0 161.6 L 60.1 164.9 L 62.2 169.1 L 64.3 159.4 L 66.4 154.3 L 68.5 160.7 L 70.7 165.3 L 72.8 154.7 L 74.9 145.7 L 77.0 144.9 L 79.1 137.6 L 81.2 146.8 L 83.3 146.8 L 85.4 142.2 L 87.5 153.3 L 89.6 157.8 L 91.7 153.3 L 93.9 146.5 L 96.0 150.0 L 98.1 148.3 L 100.2 138.4 L 102.3 140.7 L 104.4 148.8 L 106.5 149.2 L 108.6 151.5 L 110.7 143.6 L 112.8 142.6 L 114.9 147.4 L 117.1 132.4 L 119.2 135.6 L 121.3 132.5 L 123.4 128.0 L 125.5 122.7 L 127.6 121.5 L 129.7 117.4 L 131.8 117.9 L 133.9 127.4 L 136.0 128.9 L 138.1 130.1 L 140.3 131.3 L 142.4 130.3 L 144.5 134.3 L 146.6 125.6 L 148.7 114.8 L 150.8 129.7 L 152.9 129.6 L 155.0 134.2 L 157.1 150.3 L 159.2 147.8 L 161.3 151.5 L 163.5 153.7 L 165.6 157.4 L 167.7 151.0 L 169.8 143.5 L 171.9 141.8 L 174.0 137.4 L 176.1 138.1 L 178.2 137.1 L 180.3 141.8 L 182.4 141.5 L 184.5 145.9 L 186.7 143.5 L 188.8 138.3 L 190.9 136.3 L 193.0 128.6 L 195.1 110.1 L 197.2 124.6 L 199.3 124.5 L 201.4 128.3 L 203.5 131.2 L 205.6 139.9 L 207.7 139.5 L 209.9 141.1 L 212.0 145.0 L 214.1 146.5 L 216.2 150.0 L 218.3 163.4 L 220.4 157.3 L 222.5 159.0 L 224.6 164.3 L 226.7 162.6 L 228.8 166.2 L 230.9 177.7 L 233.1 173.1 L 235.2 181.6 L 237.3 182.7 L 239.4 182.1 L 241.5 175.2 L 243.6 168.8 L 245.7 167.9 L 247.8 172.0 L 249.9 174.1 L 252.0 168.3 L 254.1 158.4 L 256.3 155.2 L 258.4 158.9 L 260.5 152.9 L 262.6 155.0 L 264.7 157.4 L 266.8 158.9 L 268.9 155.5 L 271.0 153.9 L 273.1 147.9 L 275.2 139.9 L 277.3 136.7 L 279.5 151.0 L 281.6 160.7 L 283.7 159.8 L 285.8 160.1 L 287.9 147.5 L 290.0 147.6 L 292.1 148.5 L 294.2 142.7 L 296.3 136.0 L 298.4 137.5 L 300.5 134.4 L 302.7 141.5 L 304.8 147.3 L 306.9 139.7 L 309.0 148.3 L 311.1 142.6 L 313.2 138.3 L 315.3 133.4 L 317.4 127.4 L 319.5 123.6 L 321.6 137.5 L 323.7 143.8 L 325.9 147.4 L 328.0 141.8 L 330.1 148.6 L 332.2 152.8 L 334.3 154.8 L 336.4 147.0 L 338.5 155.5 L 340.6 163.1 L 342.7 159.6 L 344.8 171.2 L 346.9 169.4 L 349.1 171.8 L 351.2 179.9 L 353.3 182.0 L 355.4 186.9 L 357.5 186.1 L 359.6 184.3 L 361.7 176.7 L 363.8 176.8 L 365.9 176.2 L 368.0 179.1 L 370.1 179.2 L 372.3 173.8 L 374.4 183.6 L 376.5 180.2 L 378.6 182.9 L 380.7 182.5 L 382.8 180.8 L 384.9 176.5 L 387.0 175.2 L 389.1 177.2 L 391.2 175.6 L 393.3 175.5 L 395.5 176.5 L 397.6 175.4 L 399.7 170.8 L 401.8 170.0 L 403.9 169.2 L 406.0 175.9 L 408.1 176.6 L 410.2 185.8 L 412.3 182.3 L 414.4 186.8 L 416.5 180.4 L 418.7 164.6 L 420.8 166.8 L 422.9 159.3 L 425.0 157.0 L 427.1 160.1 L 429.2 164.8 L 431.3 161.6 L 433.4 153.6 L 435.5 151.5 L 437.6 160.2 L 439.7 166.0 L 441.9 167.2 L 444.0 159.6 L 446.1 158.0 L 448.2 156.1 L 450.3 148.9 L 452.4 150.1 L 454.5 150.6 L 456.6 151.6 L 458.7 161.8 L 460.8 159.2 L 462.9 156.8 L 465.1 151.1 L 467.2 157.9 L 469.3 162.5 L 471.4 157.2 L 473.5 155.3 L 475.6 147.1 L 477.7 152.2 L 479.8 151.0 L 481.9 155.0 L 484.0 153.1 L 486.1 155.9 L 488.3 152.7 L 490.4 146.3 L 492.5 142.1 L 494.6 152.9 L 496.7 147.3 L 498.8 144.6 L 500.9 150.8 L 503.0 156.0 L 505.1 155.9 L 507.2 152.5 L 509.3 155.1 L 511.5 164.3 L 513.6 162.7 L 515.7 161.7 L 517.8 147.4 L 519.9 155.0 L 522.0 139.8" fill="none" stroke="#ff8a3d" stroke-width="1.6" stroke-dasharray="1" pathLength="1" stroke-dashoffset="1"><animate attributeName="stroke-dashoffset" from="1" to="0" dur="1.8s" begin="0.56s" fill="freeze" calcMode="spline" keyTimes="0;1" keySplines="0.4 0 0.2 1"/></path><circle r="3" fill="#ff8a3d" filter="url(#glow)" opacity="0"><animate attributeName="opacity" to="0.95" dur="0.3s" begin="2.3600000000000003s" fill="freeze"/><animateMotion dur="5.0s" begin="2.3600000000000003s" repeatCount="indefinite" keyPoints="0;1" keyTimes="0;1" calcMode="linear"><mpath href="#p4"/></animateMotion></circle>
<path id="p5" d="M 58.0 161.6 L 60.1 151.5 L 62.2 149.7 L 64.3 139.5 L 66.4 138.8 L 68.5 132.5 L 70.7 137.2 L 72.8 136.7 L 74.9 143.0 L 77.0 152.4 L 79.1 154.0 L 81.2 157.8 L 83.3 154.4 L 85.4 146.9 L 87.5 147.8 L 89.6 147.5 L 91.7 146.3 L 93.9 156.2 L 96.0 154.6 L 98.1 154.5 L 100.2 154.7 L 102.3 161.0 L 104.4 171.8 L 106.5 173.1 L 108.6 171.4 L 110.7 164.1 L 112.8 157.7 L 114.9 149.1 L 117.1 146.8 L 119.2 139.7 L 121.3 140.9 L 123.4 137.0 L 125.5 130.9 L 127.6 112.6 L 129.7 110.8 L 131.8 119.7 L 133.9 109.9 L 136.0 115.5 L 138.1 115.9 L 140.3 117.9 L 142.4 124.1 L 144.5 114.8 L 146.6 110.6 L 148.7 114.9 L 150.8 114.3 L 152.9 117.3 L 155.0 113.0 L 157.1 115.6 L 159.2 120.9 L 161.3 125.2 L 163.5 128.1 L 165.6 126.1 L 167.7 132.1 L 169.8 132.7 L 171.9 129.7 L 174.0 113.8 L 176.1 107.6 L 178.2 128.2 L 180.3 131.6 L 182.4 134.1 L 184.5 132.0 L 186.7 121.5 L 188.8 116.3 L 190.9 131.8 L 193.0 129.8 L 195.1 129.0 L 197.2 126.2 L 199.3 116.9 L 201.4 124.4 L 203.5 116.8 L 205.6 128.0 L 207.7 127.6 L 209.9 125.0 L 212.0 109.1 L 214.1 114.0 L 216.2 125.6 L 218.3 120.9 L 220.4 125.4 L 222.5 114.6 L 224.6 119.5 L 226.7 125.4 L 228.8 116.9 L 230.9 116.2 L 233.1 109.1 L 235.2 119.1 L 237.3 107.4 L 239.4 111.6 L 241.5 105.7 L 243.6 112.8 L 245.7 123.5 L 247.8 125.2 L 249.9 124.0 L 252.0 113.1 L 254.1 110.5 L 256.3 105.3 L 258.4 100.4 L 260.5 76.0 L 262.6 82.6 L 264.7 72.3 L 266.8 73.5 L 268.9 71.3 L 271.0 75.8 L 273.1 66.0 L 275.2 76.4 L 277.3 87.0 L 279.5 88.6 L 281.6 97.4 L 283.7 92.0 L 285.8 84.8 L 287.9 90.6 L 290.0 84.4 L 292.1 89.6 L 294.2 89.9 L 296.3 89.8 L 298.4 74.7 L 300.5 74.7 L 302.7 82.1 L 304.8 89.3 L 306.9 79.7 L 309.0 92.8 L 311.1 96.4 L 313.2 99.2 L 315.3 116.8 L 317.4 120.0 L 319.5 113.0 L 321.6 111.3 L 323.7 117.6 L 325.9 112.8 L 328.0 109.0 L 330.1 93.9 L 332.2 99.5 L 334.3 102.4 L 336.4 102.0 L 338.5 103.0 L 340.6 102.3 L 342.7 103.1 L 344.8 108.1 L 346.9 119.4 L 349.1 123.2 L 351.2 132.4 L 353.3 139.1 L 355.4 142.4 L 357.5 139.3 L 359.6 133.8 L 361.7 140.4 L 363.8 138.5 L 365.9 133.4 L 368.0 133.8 L 370.1 144.2 L 372.3 157.0 L 374.4 152.5 L 376.5 147.1 L 378.6 145.5 L 380.7 151.9 L 382.8 143.2 L 384.9 135.7 L 387.0 136.1 L 389.1 137.6 L 391.2 149.8 L 393.3 145.4 L 395.5 155.1 L 397.6 151.2 L 399.7 147.0 L 401.8 146.5 L 403.9 136.8 L 406.0 139.0 L 408.1 135.4 L 410.2 130.4 L 412.3 128.8 L 414.4 131.7 L 416.5 123.7 L 418.7 120.9 L 420.8 122.4 L 422.9 123.6 L 425.0 122.9 L 427.1 107.0 L 429.2 106.4 L 431.3 108.3 L 433.4 116.0 L 435.5 124.5 L 437.6 137.0 L 439.7 135.6 L 441.9 135.6 L 444.0 142.2 L 446.1 151.3 L 448.2 153.3 L 450.3 156.5 L 452.4 164.2 L 454.5 162.6 L 456.6 161.9 L 458.7 162.4 L 460.8 158.1 L 462.9 161.9 L 465.1 154.3 L 467.2 160.3 L 469.3 157.5 L 471.4 153.9 L 473.5 155.6 L 475.6 153.7 L 477.7 161.2 L 479.8 169.6 L 481.9 170.8 L 484.0 174.8 L 486.1 171.8 L 488.3 171.8 L 490.4 168.6 L 492.5 167.0 L 494.6 166.1 L 496.7 165.7 L 498.8 167.9 L 500.9 170.5 L 503.0 159.4 L 505.1 169.3 L 507.2 170.5 L 509.3 165.2 L 511.5 163.0 L 513.6 155.1 L 515.7 152.1 L 517.8 159.5 L 519.9 161.6 L 522.0 169.4" fill="none" stroke="#a974ff" stroke-width="1.6" stroke-dasharray="1" pathLength="1" stroke-dashoffset="1"><animate attributeName="stroke-dashoffset" from="1" to="0" dur="1.8s" begin="0.6799999999999999s" fill="freeze" calcMode="spline" keyTimes="0;1" keySplines="0.4 0 0.2 1"/></path><circle r="3" fill="#a974ff" filter="url(#glow)" opacity="0"><animate attributeName="opacity" to="0.95" dur="0.3s" begin="2.48s" fill="freeze"/><animateMotion dur="5.6s" begin="2.48s" repeatCount="indefinite" keyPoints="0;1" keyTimes="0;1" calcMode="linear"><mpath href="#p5"/></animateMotion></circle>
<text x="58" y="288" fill="#00ff41" font-size="10" opacity="0"><animate attributeName="opacity" to="0.9" dur="0.6s" begin="1.6s" fill="freeze"/>▸ USE: Black–Scholes · equity &amp; FX prices</text>
</svg>