<svg xmlns="http://www.w3.org/2000/svg" width="540" height="300" viewBox="0 0 540 300" font-family="ui-monospace, SFMono-Regular, monospace">
<defs><filter id="glow" x="-20%" y="-20%" width="140%" height="140%"><feGaussianBlur stdDeviation="1.6" result="b"/><feMerge><feMergeNode in="b"/><feMergeNode in="SourceGraphic"/></feMerge></filter></defs>
<rect width="540" height="300" rx="7" fill="#0d1117"/>
<rect x="0.5" y="0.5" width="539" height="299" rx="7" fill="none" stroke="#00ff41" stroke-opacity="0.30"/>
<text x="58" y="28" fill="#00ff41" font-size="14" font-weight="bold">MERTON JUMP-DIFFUSION</text>
<text x="522" y="28" fill="#8b949e" font-size="9.5" text-anchor="end">dSₜ = μ dt + σ dWₜ + dJₜ</text>
<circle cx="46" cy="24" r="3" fill="#00ff41" filter="url(#glow)"><animate attributeName="opacity" values="1;0.2;1" dur="1.8s" repeatCount="indefinite"/></circle>
<line x1="58" y1="231.5" x2="522" y2="231.5" stroke="#1b2430" stroke-width="1"/>
<text x="50" y="234.5" fill="#8b949e" font-size="9" text-anchor="end">40</text>
<line x1="58" y1="185.0" x2="522" y2="185.0" stroke="#1b2430" stroke-width="1"/>
<text x="50" y="188.0" fill="#8b949e" font-size="9" text-anchor="end">60</text>
<line x1="58" y1="138.5" x2="522" y2="138.5" stroke="#1b2430" stroke-width="1"/>
<text x="50" y="141.5" fill="#8b949e" font-size="9" text-anchor="end">80</text>
<line x1="58" y1="91.9" x2="522" y2="91.9" stroke="#1b2430" stroke-width="1"/>
<text x="50" y="94.9" fill="#8b949e" font-size="9" text-anchor="end">100</text>
<line x1="58.0" y1="52" x2="58.0" y2="256" stroke="#1b2430" stroke-width="1"/>
<text x="58.0" y="271.0" fill="#8b949e" font-size="9" text-anchor="middle">0</text>
<line x1="150.8" y1="52" x2="150.8" y2="256" stroke="#1b2430" stroke-width="1"/>
<text x="150.8" y="271.0" fill="#8b949e" font-size="9" text-anchor="middle">0.2</text>
<line x1="243.6" y1="52" x2="243.6" y2="256" stroke="#1b2430" stroke-width="1"/>
<text x="243.6" y="271.0" fill="#8b949e" font-size="9" text-anchor="middle">0.4</text>
<line x1="336.4" y1="52" x2="336.4" y2="256" stroke="#1b2430" stroke-width="1"/>
<text x="336.4" y="271.0" fill="#8b949e" font-size="9" text-anchor="middle">0.6</text>
<line x1="429.2" y1="52" x2="429.2" y2="256" stroke="#1b2430" stroke-width="1"/>
<text x="429.2" y="271.0" fill="#8b949e" font-size="9" text-anchor="middle">0.8</text>
<line x1="522.0" y1="52" x2="522.0" y2="256" stroke="#1b2430" stroke-width="1"/>
<text x="522.0" y="271.0" fill="#8b949e" font-size="9" text-anchor="middle">1</text>
<text transform="translate(15,154.0) rotate(-90)" fill="#8b949e" font-size="10" text-anchor="middle">Sₜ</text>
<path id="p1" d="M 58.0 91.9 L 59.8 114.0 L 61.6 119.4 L 63.4 121.5 L 65.1 119.3 L 66.9 117.5 L 68.7 115.5 L 70.5 116.9 L 72.3 117.0 L 74.1 118.9 L 75.8 118.0 L 77.6 121.7 L 79.4 122.0 L 81.2 122.3 L 83.0 126.3 L 84.8 128.2 L 86.6 128.3 L 88.3 129.4 L 90.1 126.0 L 91.9 131.3 L 93.7 128.7 L 95.5 132.0 L 97.3 131.9 L 99.0 130.0 L 100.8 132.0 L 102.6 134.4 L 104.4 136.8 L 106.2 132.2 L 108.0 130.8 L 109.8 129.1 L 111.5 128.9 L 113.3 126.5 L 115.1 122.5 L 116.9 123.3 L 118.7 121.8 L 120.5 118.7 L 122.2 118.0 L 124.0 118.5 L 125.8 114.8 L 127.6 127.8 L 129.4 125.0 L 131.2 120.9 L 133.0 120.7 L 134.7 119.8 L 136.5 120.3 L 138.3 121.4 L 140.1 124.2 L 141.9 122.7 L 143.7 124.0 L 145.4 121.9 L 147.2 122.5 L 149.0 122.2 L 150.8 145.5 L 152.6 147.2 L 154.4 146.0 L 156.2 144.5 L 157.9 146.1 L 159.7 142.6 L 161.5 143.2 L 163.3 145.4 L 165.1 144.9 L 166.9 144.2 L 168.6 143.0 L 170.4 141.3 L 172.2 143.1 L 174.0 143.0 L 175.8 143.4 L 177.6 141.4 L 179.4 143.3 L 181.1 142.7 L 182.9 144.7 L 184.7 147.4 L 186.5 150.7 L 188.3 150.2 L 190.1 147.4 L 191.8 147.9 L 193.6 150.4 L 195.4 152.9 L 197.2 148.8 L 199.0 150.3 L 200.8 151.3 L 202.6 150.7 L 204.3 148.5 L 206.1 146.9 L 207.9 147.2 L 209.7 153.3 L 211.5 152.8 L 213.3 151.9 L 215.0 152.0 L 216.8 150.8 L 218.6 152.8 L 220.4 153.1 L 222.2 154.2 L 224.0 156.0 L 225.8 156.8 L 227.5 157.6 L 229.3 157.8 L 231.1 154.6 L 232.9 152.7 L 234.7 155.1 L 236.5 155.7 L 238.2 154.7 L 240.0 156.9 L 241.8 154.0 L 243.6 153.5 L 245.4 151.6 L 247.2 153.6 L 249.0 158.6 L 250.7 159.1 L 252.5 158.1 L 254.3 157.6 L 256.1 159.2 L 257.9 155.9 L 259.7 157.9 L 261.4 157.5 L 263.2 160.2 L 265.0 157.9 L 266.8 157.1 L 268.6 156.5 L 270.4 152.6 L 272.2 152.9 L 273.9 150.1 L 275.7 150.6 L 277.5 149.9 L 279.3 148.6 L 281.1 148.1 L 282.9 149.0 L 284.6 145.0 L 286.4 145.9 L 288.2 163.0 L 290.0 163.2 L 291.8 165.2 L 293.6 166.9 L 295.4 167.8 L 297.1 168.5 L 298.9 168.0 L 300.7 168.7 L 302.5 165.9 L 304.3 167.4 L 306.1 164.2 L 307.8 162.8 L 309.6 163.2 L 311.4 160.2 L 313.2 162.2 L 315.0 163.1 L 316.8 162.2 L 318.6 161.7 L 320.3 160.1 L 322.1 158.0 L 323.9 160.4 L 325.7 158.9 L 327.5 160.1 L 329.3 162.9 L 331.0 165.0 L 332.8 164.5 L 334.6 166.1 L 336.4 167.7 L 338.2 169.8 L 340.0 171.4 L 341.8 172.8 L 343.5 175.4 L 345.3 176.3 L 347.1 174.2 L 348.9 176.2 L 350.7 177.8 L 352.5 175.2 L 354.2 173.4 L 356.0 173.4 L 357.8 174.2 L 359.6 173.1 L 361.4 172.2 L 363.2 169.0 L 365.0 169.4 L 366.7 168.2 L 368.5 168.4 L 370.3 168.3 L 372.1 171.1 L 373.9 168.0 L 375.7 167.2 L 377.4 166.7 L 379.2 164.9 L 381.0 165.5 L 382.8 165.9 L 384.6 168.1 L 386.4 168.1 L 388.2 167.1 L 389.9 166.8 L 391.7 164.7 L 393.5 160.5 L 395.3 162.2 L 397.1 157.8 L 398.9 158.1 L 400.6 154.4 L 402.4 154.8 L 404.2 157.3 L 406.0 159.6 L 407.8 165.7 L 409.6 166.3 L 411.4 165.1 L 413.1 164.8 L 414.9 164.3 L 416.7 163.7 L 418.5 164.2 L 420.3 162.7 L 422.1 167.0 L 423.8 164.2 L 425.6 162.3 L 427.4 162.3 L 429.2 163.6 L 431.0 165.3 L 432.8 165.6 L 434.6 163.1 L 436.3 162.0 L 438.1 160.2 L 439.9 160.8 L 441.7 158.1 L 443.5 157.5 L 445.3 160.0 L 447.0 160.2 L 448.8 161.2 L 450.6 160.1 L 452.4 161.1 L 454.2 159.0 L 456.0 160.3 L 457.8 160.4 L 459.5 161.2 L 461.3 160.8 L 463.1 155.9 L 464.9 162.1 L 466.7 161.4 L 468.5 161.6 L 470.2 158.7 L 472.0 158.1 L 473.8 158.9 L 475.6 156.9 L 477.4 155.6 L 479.2 154.9 L 481.0 152.7 L 482.7 151.1 L 484.5 152.0 L 486.3 150.1 L 488.1 147.4 L 489.9 146.4 L 491.7 143.9 L 493.4 142.7 L 495.2 143.9 L 497.0 147.1 L 498.8 143.8 L 500.6 141.8 L 502.4 144.9 L 504.2 142.9 L 505.9 143.2 L 507.7 144.4 L 509.5 143.6 L 511.3 141.4 L 513.1 141.6 L 514.9 142.0 L 516.6 140.1 L 518.4 147.6 L 520.2 146.9 L 522.0 146.8" fill="none" stroke="#00ff41" stroke-width="1.6" stroke-dasharray="1" pathLength="1" stroke-dashoffset="1"><animate attributeName="stroke-dashoffset" from="1" to="0" dur="2.0s" begin="0.2s" fill="freeze" calcMode="spline" keyTimes="0;1" keySplines="0.4 0 0.2 1"/></path><circle r="3" fill="#00ff41" filter="url(#glow)" opacity="0"><animate attributeName="opacity" to="0.95" dur="0.3s" begin="2.2s" fill="freeze"/><animateMotion dur="3.6s" begin="2.2s" repeatCount="indefinite" keyPoints="0;1" keyTimes="0;1" calcMode="linear"><mpath href="#p1"/></animateMotion></circle>
<path id="p2" d="M 58.0 91.9 L 59.8 91.3 L 61.6 87.6 L 63.4 85.5 L 65.1 84.0 L 66.9 84.9 L 68.7 82.2 L 70.5 81.0 L 72.3 75.8 L 74.1 74.9 L 75.8 72.5 L 77.6 70.3 L 79.4 72.8 L 81.2 73.3 L 83.0 71.8 L 84.8 75.5 L 86.6 76.5 L 88.3 75.1 L 90.1 75.5 L 91.9 76.8 L 93.7 77.0 L 95.5 75.2 L 97.3 79.5 L 99.0 78.8 L 100.8 79.8 L 102.6 81.8 L 104.4 83.0 L 106.2 78.8 L 108.0 78.7 L 109.8 79.0 L 111.5 89.8 L 113.3 90.7 L 115.1 95.6 L 116.9 96.0 L 118.7 99.0 L 120.5 99.2 L 122.2 102.2 L 124.0 102.9 L 125.8 100.8 L 127.6 97.7 L 129.4 98.7 L 131.2 95.4 L 133.0 89.9 L 134.7 89.4 L 136.5 89.5 L 138.3 84.4 L 140.1 82.2 L 141.9 85.7 L 143.7 83.5 L 145.4 87.4 L 147.2 85.8 L 149.0 82.9 L 150.8 85.4 L 152.6 85.0 L 154.4 86.2 L 156.2 83.8 L 157.9 81.6 L 159.7 76.8 L 161.5 77.9 L 163.3 72.7 L 165.1 69.4 L 166.9 72.5 L 168.6 71.2 L 170.4 71.7 L 172.2 74.3 L 174.0 71.1 L 175.8 69.6 L 177.6 69.7 L 179.4 73.4 L 181.1 70.5 L 182.9 70.9 L 184.7 70.5 L 186.5 69.5 L 188.3 70.9 L 190.1 69.1 L 191.8 75.8 L 193.6 74.5 L 195.4 66.9 L 197.2 70.5 L 199.0 70.5 L 200.8 66.9 L 202.6 65.0 L 204.3 69.8 L 206.1 74.7 L 207.9 76.9 L 209.7 74.9 L 211.5 78.7 L 213.3 80.7 L 215.0 81.9 L 216.8 83.4 L 218.6 85.8 L 220.4 78.3 L 222.2 79.9 L 224.0 83.2 L 225.8 80.6 L 227.5 82.6 L 229.3 81.5 L 231.1 83.6 L 232.9 81.2 L 234.7 86.1 L 236.5 85.5 L 238.2 86.7 L 240.0 90.1 L 241.8 94.1 L 243.6 93.6 L 245.4 95.3 L 247.2 98.0 L 249.0 98.7 L 250.7 96.6 L 252.5 97.8 L 254.3 95.8 L 256.1 94.3 L 257.9 95.3 L 259.7 92.6 L 261.4 92.0 L 263.2 106.5 L 265.0 101.9 L 266.8 101.1 L 268.6 102.2 L 270.4 101.8 L 272.2 100.9 L 273.9 100.9 L 275.7 105.1 L 277.5 109.8 L 279.3 107.4 L 281.1 109.9 L 282.9 116.1 L 284.6 115.6 L 286.4 116.4 L 288.2 115.6 L 290.0 115.1 L 291.8 115.5 L 293.6 121.9 L 295.4 119.8 L 297.1 118.9 L 298.9 119.0 L 300.7 119.1 L 302.5 117.8 L 304.3 116.6 L 306.1 117.4 L 307.8 114.6 L 309.6 116.7 L 311.4 117.5 L 313.2 116.4 L 315.0 116.0 L 316.8 117.5 L 318.6 124.2 L 320.3 123.7 L 322.1 124.1 L 323.9 123.5 L 325.7 121.5 L 327.5 120.9 L 329.3 119.6 L 331.0 116.1 L 332.8 118.4 L 334.6 114.5 L 336.4 114.3 L 338.2 107.8 L 340.0 104.9 L 341.8 105.7 L 343.5 105.5 L 345.3 105.9 L 347.1 105.4 L 348.9 107.0 L 350.7 106.9 L 352.5 105.8 L 354.2 105.0 L 356.0 108.8 L 357.8 110.4 L 359.6 108.2 L 361.4 110.6 L 363.2 111.0 L 365.0 113.6 L 366.7 114.5 L 368.5 114.2 L 370.3 115.3 L 372.1 117.7 L 373.9 119.4 L 375.7 121.0 L 377.4 118.8 L 379.2 118.3 L 381.0 119.1 L 382.8 119.7 L 384.6 120.4 L 386.4 126.3 L 388.2 127.1 L 389.9 130.3 L 391.7 127.5 L 393.5 127.0 L 395.3 126.9 L 397.1 124.2 L 398.9 122.9 L 400.6 125.4 L 402.4 122.4 L 404.2 123.9 L 406.0 125.0 L 407.8 127.2 L 409.6 126.2 L 411.4 127.2 L 413.1 129.4 L 414.9 129.8 L 416.7 128.1 L 418.5 124.1 L 420.3 124.6 L 422.1 126.7 L 423.8 129.9 L 425.6 129.3 L 427.4 126.9 L 429.2 125.8 L 431.0 126.1 L 432.8 127.0 L 434.6 129.2 L 436.3 132.4 L 438.1 131.0 L 439.9 132.1 L 441.7 134.7 L 443.5 133.8 L 445.3 134.4 L 447.0 132.1 L 448.8 133.3 L 450.6 136.9 L 452.4 141.2 L 454.2 138.5 L 456.0 143.2 L 457.8 139.9 L 459.5 136.1 L 461.3 141.2 L 463.1 141.8 L 464.9 144.0 L 466.7 145.2 L 468.5 143.6 L 470.2 144.1 L 472.0 145.6 L 473.8 149.0 L 475.6 150.1 L 477.4 147.7 L 479.2 147.3 L 481.0 145.6 L 482.7 143.3 L 484.5 145.8 L 486.3 143.9 L 488.1 144.4 L 489.9 143.7 L 491.7 143.1 L 493.4 142.6 L 495.2 142.9 L 497.0 142.7 L 498.8 142.2 L 500.6 143.5 L 502.4 143.0 L 504.2 143.7 L 505.9 142.8 L 507.7 146.0 L 509.5 144.2 L 511.3 144.4 L 513.1 145.4 L 514.9 146.9 L 516.6 146.7 L 518.4 147.8 L 520.2 148.8 L 522.0 149.4" fill="none" stroke="#00d4ff" stroke-width="1.6" stroke-dasharray="1" pathLength="1" stroke-dashoffset="1"><animate attributeName="stroke-dashoffset" from="1" to="0" dur="2.0s" begin="0.35s" fill="freeze" calcMode="spline" keyTimes="0;1" keySplines="0.4 0 0.2 1"/></path><circle r="3" fill="#00d4ff" filter="url(#glow)" opacity="0"><animate attributeName="opacity" to="0.95" dur="0.3s" begin="2.35s" fill="freeze"/><animateMotion dur="4.3s" begin="2.35s" repeatCount="indefinite" keyPoints="0;1" keyTimes="0;1" calcMode="linear"><mpath href="#p2"/></animateMotion></circle>
<path id="p3" d="M 58.0 91.9 L 59.8 94.8 L 61.6 99.4 L 63.4 99.9 L 65.1 105.0 L 66.9 106.0 L 68.7 106.1 L 70.5 107.5 L 72.3 104.8 L 74.1 106.5 L 75.8 104.5 L 77.6 105.0 L 79.4 106.8 L 81.2 108.3 L 83.0 109.8 L 84.8 108.3 L 86.6 108.6 L 88.3 112.9 L 90.1 115.6 L 91.9 121.1 L 93.7 119.5 L 95.5 118.4 L 97.3 113.7 L 99.0 112.9 L 100.8 114.9 L 102.6 118.6 L 104.4 118.4 L 106.2 122.5 L 108.0 122.5 L 109.8 123.9 L 111.5 119.8 L 113.3 120.0 L 115.1 120.5 L 116.9 116.8 L 118.7 115.5 L 120.5 114.7 L 122.2 111.2 L 124.0 113.6 L 125.8 116.2 L 127.6 135.2 L 129.4 133.8 L 131.2 130.2 L 133.0 127.2 L 134.7 124.0 L 136.5 123.2 L 138.3 124.8 L 140.1 123.2 L 141.9 124.4 L 143.7 123.0 L 145.4 125.5 L 147.2 125.8 L 149.0 126.1 L 150.8 126.7 L 152.6 130.0 L 154.4 132.0 L 156.2 129.0 L 157.9 145.1 L 159.7 146.6 L 161.5 147.9 L 163.3 148.7 L 165.1 148.6 L 166.9 158.0 L 168.6 158.8 L 170.4 160.0 L 172.2 159.8 L 174.0 162.7 L 175.8 161.2 L 177.6 159.9 L 179.4 159.9 L 181.1 160.3 L 182.9 162.5 L 184.7 162.5 L 186.5 163.1 L 188.3 163.1 L 190.1 175.5 L 191.8 174.4 L 193.6 172.7 L 195.4 173.9 L 197.2 176.3 L 199.0 176.2 L 200.8 176.9 L 202.6 181.0 L 204.3 181.0 L 206.1 183.2 L 207.9 182.8 L 209.7 182.8 L 211.5 181.3 L 213.3 179.9 L 215.0 180.0 L 216.8 180.9 L 218.6 183.7 L 220.4 186.5 L 222.2 187.7 L 224.0 189.3 L 225.8 189.1 L 227.5 189.8 L 229.3 201.1 L 231.1 199.8 L 232.9 197.8 L 234.7 198.6 L 236.5 199.0 L 238.2 197.7 L 240.0 196.5 L 241.8 196.0 L 243.6 194.7 L 245.4 193.2 L 247.2 190.1 L 249.0 191.1 L 250.7 191.5 L 252.5 191.4 L 254.3 191.3 L 256.1 188.8 L 257.9 186.9 L 259.7 188.8 L 261.4 190.2 L 263.2 189.9 L 265.0 191.1 L 266.8 191.9 L 268.6 192.2 L 270.4 193.3 L 272.2 203.9 L 273.9 203.0 L 275.7 203.4 L 277.5 203.2 L 279.3 203.9 L 281.1 204.6 L 282.9 208.6 L 284.6 207.7 L 286.4 206.9 L 288.2 206.0 L 290.0 206.3 L 291.8 206.4 L 293.6 206.9 L 295.4 206.6 L 297.1 206.1 L 298.9 204.4 L 300.7 204.6 L 302.5 206.3 L 304.3 207.3 L 306.1 208.0 L 307.8 208.5 L 309.6 209.7 L 311.4 208.9 L 313.2 208.0 L 315.0 208.8 L 316.8 209.1 L 318.6 209.2 L 320.3 207.8 L 322.1 210.0 L 323.9 209.8 L 325.7 209.6 L 327.5 209.7 L 329.3 209.2 L 331.0 211.6 L 332.8 212.6 L 334.6 212.6 L 336.4 213.1 L 338.2 211.9 L 340.0 211.5 L 341.8 211.2 L 343.5 210.2 L 345.3 208.8 L 347.1 210.7 L 348.9 210.4 L 350.7 211.6 L 352.5 211.4 L 354.2 212.7 L 356.0 213.3 L 357.8 211.3 L 359.6 213.7 L 361.4 213.1 L 363.2 214.7 L 365.0 221.8 L 366.7 221.8 L 368.5 220.8 L 370.3 220.1 L 372.1 222.3 L 373.9 221.6 L 375.7 222.1 L 377.4 223.1 L 379.2 224.2 L 381.0 223.4 L 382.8 224.3 L 384.6 224.0 L 386.4 220.8 L 388.2 220.7 L 389.9 234.9 L 391.7 234.5 L 393.5 235.3 L 395.3 235.0 L 397.1 235.0 L 398.9 235.8 L 400.6 236.5 L 402.4 236.0 L 404.2 236.7 L 406.0 237.0 L 407.8 236.3 L 409.6 234.9 L 411.4 233.2 L 413.1 233.4 L 414.9 234.9 L 416.7 235.7 L 418.5 237.1 L 420.3 237.2 L 422.1 238.2 L 423.8 237.9 L 425.6 238.9 L 427.4 240.5 L 429.2 240.1 L 431.0 240.5 L 432.8 240.8 L 434.6 240.9 L 436.3 241.1 L 438.1 243.1 L 439.9 243.8 L 441.7 245.0 L 443.5 246.3 L 445.3 245.5 L 447.0 245.1 L 448.8 245.8 L 450.6 245.3 L 452.4 246.8 L 454.2 247.1 L 456.0 247.5 L 457.8 246.7 L 459.5 246.2 L 461.3 247.0 L 463.1 244.6 L 464.9 243.5 L 466.7 241.6 L 468.5 240.6 L 470.2 240.9 L 472.0 241.7 L 473.8 240.9 L 475.6 242.1 L 477.4 240.7 L 479.2 247.7 L 481.0 248.0 L 482.7 249.1 L 484.5 247.0 L 486.3 247.2 L 488.1 247.1 L 489.9 249.5 L 491.7 250.3 L 493.4 250.4 L 495.2 250.9 L 497.0 251.3 L 498.8 251.7 L 500.6 252.4 L 502.4 251.1 L 504.2 249.5 L 505.9 250.0 L 507.7 250.4 L 509.5 250.7 L 511.3 249.6 L 513.1 249.9 L 514.9 251.0 L 516.6 250.4 L 518.4 250.2 L 520.2 251.6 L 522.0 250.8" fill="none" stroke="#ffb000" stroke-width="1.6" stroke-dasharray="1" pathLength="1" stroke-dashoffset="1"><animate attributeName="stroke-dashoffset" from="1" to="0" dur="2.0s" begin="0.5s" fill="freeze" calcMode="spline" keyTimes="0;1" keySplines="0.4 0 0.2 1"/></path><circle r="3" fill="#ffb000" filter="url(#glow)" opacity="0"><animate attributeName="opacity" to="0.95" dur="0.3s" begin="2.5s" fill="freeze"/><animateMotion dur="5.0s" begin="2.5s" repeatCount="indefinite" keyPoints="0;1" keyTimes="0;1" calcMode="linear"><mpath href="#p3"/></animateMotion></circle>
<circle cx="59.8" cy="114.0" r="0" fill="#ff4d4d" filter="url(#glow)"><animate attributeName="r" to="2.6" dur="0.4s" begin="2.2s" fill="freeze"/></circle>
<circle cx="127.6" cy="127.8" r="0" fill="#ff4d4d" filter="url(#glow)"><animate attributeName="r" to="2.6" dur="0.4s" begin="2.2s" fill="freeze"/></circle>
<circle cx="150.8" cy="145.5" r="0" fill="#ff4d4d" filter="url(#glow)"><animate attributeName="r" to="2.6" dur="0.4s" begin="2.2s" fill="freeze"/></circle>
<circle cx="224.0" cy="156.0" r="0" fill="#ff4d4d" filter="url(#glow)"><animate attributeName="r" to="2.6" dur="0.4s" begin="2.2s" fill="freeze"/></circle>
<circle cx="288.2" cy="163.0" r="0" fill="#ff4d4d" filter="url(#glow)"><animate attributeName="r" to="2.6" dur="0.4s" begin="2.2s" fill="freeze"/></circle>
<circle cx="407.8" cy="165.7" r="0" fill="#ff4d4d" filter="url(#glow)"><animate attributeName="r" to="2.6" dur="0.4s" begin="2.2s" fill="freeze"/></circle>
<circle cx="464.9" cy="162.1" r="0" fill="#ff4d4d" filter="url(#glow)"><animate attributeName="r" to="2.6" dur="0.4s" begin="2.2s" fill="freeze"/></circle>
<circle cx="518.4" cy="147.6" r="0" fill="#ff4d4d" filter="url(#glow)"><animate attributeName="r" to="2.6" dur="0.4s" begin="2.2s" fill="freeze"/></circle>
<circle cx="111.5" cy="89.8" r="0" fill="#ff4d4d" filter="url(#glow)"><animate attributeName="r" to="2.6" dur="0.4s" begin="2.2s" fill="freeze"/></circle>
<circle cx="263.2" cy="106.5" r="0" fill="#ff4d4d" filter="url(#glow)"><animate attributeName="r" to="2.6" dur="0.4s" begin="2.2s" fill="freeze"/></circle>
<circle cx="102.6" cy="118.6" r="0" fill="#ff4d4d" filter="url(#glow)"><animate attributeName="r" to="2.6" dur="0.4s" begin="2.2s" fill="freeze"/></circle>
<circle cx="127.6" cy="135.2" r="0" fill="#ff4d4d" filter="url(#glow)"><animate attributeName="r" to="2.6" dur="0.4s" begin="2.2s" fill="freeze"/></circle>
<circle cx="157.9" cy="145.1" r="0" fill="#ff4d4d" filter="url(#glow)"><animate attributeName="r" to="2.6" dur="0.4s" begin="2.2s" fill="freeze"/></circle>
<circle cx="166.9" cy="158.0" r="0" fill="#ff4d4d" filter="url(#glow)"><animate attributeName="r" to="2.6" dur="0.4s" begin="2.2s" fill="freeze"/></circle>
<circle cx="190.1" cy="175.5" r="0" fill="#ff4d4d" filter="url(#glow)"><animate attributeName="r" to="2.6" dur="0.4s" begin="2.2s" fill="freeze"/></circle>
<circle cx="229.3" cy="201.1" r="0" fill="#ff4d4d" filter="url(#glow)"><animate attributeName="r" to="2.6" dur="0.4s" begin="2.2s" fill="freeze"/></circle>
<circle cx="272.2" cy="203.9" r="0" fill="#ff4d4d" filter="url(#glow)"><animate attributeName="r" to="2.6" dur="0.4s" begin="2.2s" fill="freeze"/></circle>
<circle cx="322.1" cy="210.0" r="0" fill="#ff4d4d" filter="url(#glow)"><animate attributeName="r" to="2.6" dur="0.4s" begin="2.2s" fill="freeze"/></circle>
<circle cx="365.0" cy="221.8" r="0" fill="#ff4d4d" filter="url(#glow)"><animate attributeName="r" to="2.6" dur="0.4s" begin="2.2s" fill="freeze"/></circle>
<circle cx="389.9" cy="234.9" r="0" fill="#ff4d4d" filter="url(#glow)"><animate attributeName="r" to="2.6" dur="0.4s" begin="2.2s" fill="freeze"/></circle>
<circle cx="461.3" cy="247.0" r="0" fill="#ff4d4d" filter="url(#glow)"><animate attributeName="r" to="2.6" dur="0.4s" begin="2.2s" fill="freeze"/></circle>
<circle cx="473.8" cy="240.9" r="0" fill="#ff4d4d" filter="url(#glow)"><animate attributeName="r" to="2.6" dur="0.4s" begin="2.2s" fill="freeze"/></circle>
<circle cx="479.2" cy="247.7" r="0" fill="#ff4d4d" filter="url(#glow)"><animate attributeName="r" to="2.6" dur="0.4s" begin="2.2s" fill="freeze"/></circle>
<circle cx="489.9" cy="249.5" r="0" fill="#ff4d4d" filter="url(#glow)"><animate attributeName="r" to="2.6" dur="0.4s" begin="2.2s" fill="freeze"/></circle>
<text x="518" y="64" fill="#ff4d4d" font-size="9" text-anchor="end" opacity="0"><animate attributeName="opacity" to="0.85" dur="0.5s" begin="2.3s" fill="freeze"/>● jump</text>
<text x="58" y="288" fill="#00ff41" font-size="10" opacity="0"><animate attributeName="opacity" to="0.9" dur="0.6s" begin="1.6s" fill="freeze"/>▸ USE: crashes · gap risk · default events</text>
</svg>