<svg xmlns="http://www.w3.org/2000/svg" width="560" height="340" viewBox="0 0 560 340" font-family="ui-monospace, SFMono-Regular, monospace">
<defs><filter id="glow" x="-20%" y="-20%" width="140%" height="140%"><feGaussianBlur stdDeviation="1.6" result="b"/><feMerge><feMergeNode in="b"/><feMergeNode in="SourceGraphic"/></feMerge></filter></defs>
<rect width="560" height="340" rx="7" fill="#0d1117"/>
<rect x="0.5" y="0.5" width="559" height="339" rx="7" fill="none" stroke="#00ff41" stroke-opacity="0.30"/>
<text x="66" y="28" fill="#00ff41" font-size="14" font-weight="bold">VaR FAN CHART</text>
<text x="538" y="28" fill="#8b949e" font-size="9.5" text-anchor="end">20D · 8k paths · synthetic</text>
<circle cx="54" cy="24" r="3" fill="#00ff41" filter="url(#glow)"><animate attributeName="opacity" values="1;0.2;1" dur="1.8s" repeatCount="indefinite"/></circle>
<line x1="66" y1="261.3" x2="538" y2="261.3" stroke="#1b2430" stroke-width="1"/>
<text x="58" y="264.3" fill="#8b949e" font-size="9" text-anchor="end">-10</text>
<line x1="66" y1="183.2" x2="538" y2="183.2" stroke="#1b2430" stroke-width="1"/>
<text x="58" y="186.2" fill="#8b949e" font-size="9" text-anchor="end">+0</text>
<line x1="66" y1="105.1" x2="538" y2="105.1" stroke="#1b2430" stroke-width="1"/>
<text x="58" y="108.1" fill="#8b949e" font-size="9" text-anchor="end">+10</text>
<line x1="66.0" y1="56" x2="66.0" y2="292" stroke="#1b2430" stroke-width="1"/>
<text x="66.0" y="307.0" fill="#8b949e" font-size="9" text-anchor="middle">0</text>
<line x1="184.0" y1="56" x2="184.0" y2="292" stroke="#1b2430" stroke-width="1"/>
<text x="184.0" y="307.0" fill="#8b949e" font-size="9" text-anchor="middle">5</text>
<line x1="302.0" y1="56" x2="302.0" y2="292" stroke="#1b2430" stroke-width="1"/>
<text x="302.0" y="307.0" fill="#8b949e" font-size="9" text-anchor="middle">10</text>
<line x1="420.0" y1="56" x2="420.0" y2="292" stroke="#1b2430" stroke-width="1"/>
<text x="420.0" y="307.0" fill="#8b949e" font-size="9" text-anchor="middle">15</text>
<line x1="538.0" y1="56" x2="538.0" y2="292" stroke="#1b2430" stroke-width="1"/>
<text x="538.0" y="307.0" fill="#8b949e" font-size="9" text-anchor="middle">20</text>
<text x="302.0" y="332" fill="#8b949e" font-size="10" text-anchor="middle">Horizon (days)</text>
<text transform="translate(15,174.0) rotate(-90)" fill="#8b949e" font-size="10" text-anchor="middle">P&amp;L (%)</text>
<path d="M 66.0 183.2 89.6 159.8 113.2 148.8 136.8 141.2 160.4 133.7 184.0 128.4 207.6 122.8 231.2 118.7 254.8 110.0 278.4 105.5 302.0 99.9 325.6 94.6 349.2 91.2 372.8 87.0 396.4 83.9 420.0 77.9 443.6 77.4 467.2 72.4 490.8 68.7 514.4 67.9 538.0 65.4 538.0 283.9 514.4 280.5 490.8 279.2 467.2 278.0 443.6 274.7 420.0 271.4 396.4 270.2 372.8 266.1 349.2 262.5 325.6 258.8 302.0 255.9 278.4 250.3 254.8 249.0 231.2 245.5 207.6 240.0 184.0 233.7 160.4 230.6 136.8 225.2 113.2 218.5 89.6 208.0 66.0 183.2 Z" fill="#00ff41" stroke="none" opacity="0"><animate attributeName="opacity" from="0" to="0.07" dur="0.8s" begin="0.15s" fill="freeze"/><animate attributeName="opacity" values="0.07;0.11900000000000001;0.07" dur="4.5s" begin="1.1500000000000001s" repeatCount="indefinite"/></path>
<path d="M 66.0 183.2 89.6 165.0 113.2 157.1 136.8 150.8 160.4 145.4 184.0 140.8 207.6 136.0 231.2 131.2 254.8 127.4 278.4 122.9 302.0 120.3 325.6 116.8 349.2 114.1 372.8 111.8 396.4 108.4 420.0 105.0 443.6 102.8 467.2 101.7 490.8 99.0 514.4 95.3 538.0 94.3 538.0 260.6 514.4 258.6 490.8 256.5 467.2 255.3 443.6 253.3 420.0 251.8 396.4 248.3 372.8 246.3 349.2 242.7 325.6 240.8 302.0 237.9 278.4 236.4 254.8 232.7 231.2 229.6 207.6 226.2 184.0 221.9 160.4 218.6 136.8 214.8 113.2 209.2 89.6 201.7 66.0 183.2 Z" fill="#00ff41" stroke="none" opacity="0"><animate attributeName="opacity" from="0" to="0.12" dur="0.8s" begin="0.35s" fill="freeze"/><animate attributeName="opacity" values="0.12;0.204;0.12" dur="4.5s" begin="1.3499999999999999s" repeatCount="indefinite"/></path>
<path d="M 66.0 183.2 89.6 173.8 113.2 169.7 136.8 166.7 160.4 163.9 184.0 161.6 207.6 159.4 231.2 157.3 254.8 155.3 278.4 153.8 302.0 151.6 325.6 150.9 349.2 149.1 372.8 147.8 396.4 146.8 420.0 145.2 443.6 143.1 467.2 141.5 490.8 140.0 514.4 138.5 538.0 137.1 538.0 222.3 514.4 221.3 490.8 219.9 467.2 219.0 443.6 218.5 420.0 217.1 396.4 216.3 372.8 215.3 349.2 213.6 325.6 212.3 302.0 210.9 278.4 209.6 254.8 208.0 231.2 206.6 207.6 204.6 184.0 203.0 160.4 201.4 136.8 198.9 113.2 195.8 89.6 192.3 66.0 183.2 Z" fill="#00ff41" stroke="none" opacity="0"><animate attributeName="opacity" from="0" to="0.2" dur="0.8s" begin="0.55s" fill="freeze"/><animate attributeName="opacity" values="0.2;0.34;0.2" dur="4.5s" begin="1.55s" repeatCount="indefinite"/></path>
<path id="p1" d="M 66.0 183.2 L 89.6 183.1 L 113.2 183.0 L 136.8 182.6 L 160.4 182.9 L 184.0 182.5 L 207.6 182.5 L 231.2 182.0 L 254.8 182.3 L 278.4 182.3 L 302.0 182.1 L 325.6 181.7 L 349.2 181.8 L 372.8 181.5 L 396.4 181.2 L 420.0 181.6 L 443.6 181.7 L 467.2 181.3 L 490.8 181.3 L 514.4 181.0 L 538.0 181.0" fill="none" stroke="#00ff41" stroke-width="2.2" filter="url(#glow)" stroke-dasharray="1" pathLength="1" stroke-dashoffset="1"><animate attributeName="stroke-dashoffset" from="1" to="0" dur="1.6s" begin="0.2s" fill="freeze" calcMode="spline" keyTimes="0;1" keySplines="0.4 0 0.2 1"/></path><circle r="3" fill="#00ff41" filter="url(#glow)" opacity="0"><animate attributeName="opacity" to="0.95" dur="0.3s" begin="1.8s" fill="freeze"/><animateMotion dur="3.6s" begin="1.8s" repeatCount="indefinite" keyPoints="0;1" keyTimes="0;1" calcMode="linear"><mpath href="#p1"/></animateMotion></circle>
<path id="p2" d="M 66.0 183.2 L 89.6 201.7 L 113.2 209.2 L 136.8 214.8 L 160.4 218.6 L 184.0 221.9 L 207.6 226.2 L 231.2 229.6 L 254.8 232.7 L 278.4 236.4 L 302.0 237.9 L 325.6 240.8 L 349.2 242.7 L 372.8 246.3 L 396.4 248.3 L 420.0 251.8 L 443.6 253.3 L 467.2 255.3 L 490.8 256.5 L 514.4 258.6 L 538.0 260.6" fill="none" stroke="#ffb000" stroke-width="1.4" stroke-dasharray="5 3" opacity="0"><animate attributeName="opacity" from="0" to="1" dur="1.0s" begin="1.1s" fill="freeze"/></path>
<path id="p3" d="M 66.0 183.2 L 89.6 208.0 L 113.2 218.5 L 136.8 225.2 L 160.4 230.6 L 184.0 233.7 L 207.6 240.0 L 231.2 245.5 L 254.8 249.0 L 278.4 250.3 L 302.0 255.9 L 325.6 258.8 L 349.2 262.5 L 372.8 266.1 L 396.4 270.2 L 420.0 271.4 L 443.6 274.7 L 467.2 278.0 L 490.8 279.2 L 514.4 280.5 L 538.0 283.9" fill="none" stroke="#ff4d4d" stroke-width="1.4" stroke-dasharray="5 3" opacity="0"><animate attributeName="opacity" from="0" to="1" dur="1.0s" begin="1.3s" fill="freeze"/></path>
<g font-size="10" font-weight="bold" opacity="0"><animate attributeName="opacity" from="0" to="1" dur="0.6s" begin="2.0s" fill="freeze"/><text x="532" y="70.0" fill="#ffb000" text-anchor="end">VaR95  9.9%</text><text x="532" y="84.0" fill="#ff4d4d" text-anchor="end">VaR99  12.9%</text></g>
<g font-size="9"><rect x="74" y="63" width="10" height="10" rx="2" fill="#00ff41"/><text x="89" y="72" fill="#8b949e">median</text><rect x="74" y="79" width="10" height="10" rx="2" fill="#ffb000"/><text x="89" y="88" fill="#8b949e">95% bound</text><rect x="74" y="95" width="10" height="10" rx="2" fill="#ff4d4d"/><text x="89" y="104" fill="#8b949e">99% bound</text></g>
</svg>